<?xml version="1.0" standalone="no"?>
<!DOCTYPE svg PUBLIC "-//W3C//DTD SVG 1.1//EN" "http://www.w3.org/Graphics/SVG/1.1/DTD/svg11.dtd" >
<!--
2013-9-30: Created.
-->
<svg>
<metadata>
Created by iconfont
</metadata>
<defs>

<font id="iconfont" horiz-adv-x="1024" >
  <font-face
    font-family="iconfont"
    font-weight="500"
    font-stretch="normal"
    units-per-em="1024"
    ascent="896"
    descent="-128"
  />
    <missing-glyph />
    
    <glyph glyph-name="shishishuju" unicode="&#58914;" d="M509.589333 557.44c-95.872 0-173.610667-53.653333-173.610666-119.829333s77.717333-119.829333 173.610666-119.829334c95.872 0 173.610667 53.653333 173.610667 119.829334s-77.738667 119.829333-173.610667 119.829333z m0-205.162667a85.333333 85.333333 0 1 0 0 170.666667 85.333333 85.333333 0 0 0 0-170.666667zM509.589333 437.610667m-53.333333 0a53.333333 53.333333 0 1 1 106.666667 0 53.333333 53.333333 0 1 1-106.666667 0ZM952.576 83.370667H70.912a70.933333 70.933333 0 0 0-70.848 70.848V721.002667a70.912 70.912 0 0 0 70.848 70.848h881.664a70.933333 70.933333 0 0 0 70.848-70.848v-566.784a70.954667 70.954667 0 0 0-70.848-70.848z m-873.792 78.72h865.92V713.130667H78.784v-551.04zM389.845333 57.898667h251.904v-62.976H389.845333zM326.869333-17.685333h377.856v-31.488H326.869333z"  horiz-adv-x="1024" />

    
    <glyph glyph-name="datadisplay" unicode="&#58973;" d="M887.9786670000001 296.2133329999999c-32.149333 34.666667-89.664 87.36-158.954667 110.122667a220.885333 220.885333 0 0 1-47.616 10.197333 195.90399999999997 195.90399999999997 0 0 1-18.730667 0.917334c-51.797333 0-99.968-21.184-140.096-47.786667a438.826667 438.826667 0 0 1-46.613333-35.882667c-41.23733299999999-36.16-66.410667-70.378667-66.410667-70.378666s25.173333-34.197333 66.410667-70.378667a446.762667 446.762667 0 0 1 46.613333-35.882667 344.32 344.32 0 0 1 37.525334-21.76c31.359999999999996-15.530667000000001 66.048-26.026667 102.549333-26.026666 33.066667 0 64.64 8.618667 93.589333 21.802666 57.024 25.898667 103.850667 69.418667 131.669334 99.456 17.792 19.178667 27.839999999999996 32.810667 27.839999999999996 32.810667s-9.984 13.610667-27.776 32.789333z m-158.954667-107.669333a109.866667 109.866667 0 0 0-47.616-19.904 114.986667 114.986667 0 0 0-18.730667-1.536c-58.24 0-105.472 43.093333-105.472 96.298667 0 53.162667 47.210667 96.277333 105.472 96.277333a115.19999999999999 115.19999999999999 0 0 0 18.730667-1.536 110.08 110.08 0 0 0 47.616-19.904c23.872-17.642667 39.146666999999994-44.608 39.146666999999994-74.816-0.021333-30.272-15.274667-57.237333-39.146666999999994-74.88zM846.976 625.216L665.386667 807.914667H182.698667c-32.554667 0-60.032-27.2-60.032-60.778667V23.67999999999995c0-33.621333 26.986667-60.778667 60.266666-60.778667h394.496V23.253332999999998H183.018667V747.541333h422.506666v-151.466666c0-8.298667 3.370667-15.722667 8.832-21.034667 5.738667-5.077333 13.418667-8.576 21.888-8.576h150.357334v-99.370667h60.352000000000004m-93.525334 159.722667l-87.509333 79.573333v-79.573333h87.509333zM619.413333 263.38133300000004a43.264 39.509333 0 1 1 86.528 0 43.264 39.509333 0 1 1-86.528 0ZM887.9786670000001 296.2133329999999c-32.149333 34.666667-89.664 87.36-158.954667 110.122667a220.885333 220.885333 0 0 1-47.616 10.197333 195.90399999999997 195.90399999999997 0 0 1-18.730667 0.917334c-51.797333 0-99.968-21.184-140.096-47.786667a438.826667 438.826667 0 0 1-46.613333-35.882667c-41.23733299999999-36.16-66.410667-70.378667-66.410667-70.378666s25.173333-34.197333 66.410667-70.378667a446.762667 446.762667 0 0 1 46.613333-35.882667 344.32 344.32 0 0 1 37.525334-21.76c31.359999999999996-15.530667000000001 66.048-26.026667 102.549333-26.026666 33.066667 0 64.64 8.618667 93.589333 21.802666 57.024 25.898667 103.850667 69.418667 131.669334 99.456 17.792 19.178667 27.839999999999996 32.810667 27.839999999999996 32.810667s-9.984 13.610667-27.776 32.789333z m-158.954667-107.669333a109.866667 109.866667 0 0 0-47.616-19.904 114.986667 114.986667 0 0 0-18.730667-1.536c-58.24 0-105.472 43.093333-105.472 96.298667 0 53.162667 47.210667 96.277333 105.472 96.277333a115.19999999999999 115.19999999999999 0 0 0 18.730667-1.536 110.08 110.08 0 0 0 47.616-19.904c23.872-17.642667 39.146666999999994-44.608 39.146666999999994-74.816-0.021333-30.272-15.274667-57.237333-39.146666999999994-74.88zM846.976 625.216L665.386667 807.914667H182.698667c-32.554667 0-60.032-27.2-60.032-60.778667V23.67999999999995c0-33.621333 26.986667-60.778667 60.266666-60.778667h394.496V23.253332999999998H183.018667V747.541333h422.506666v-151.466666c0-8.298667 3.370667-15.722667 8.832-21.034667 5.738667-5.077333 13.418667-8.576 21.888-8.576h150.357334v-99.370667h60.352000000000004m-93.525334 159.722667l-87.509333 79.573333v-79.573333h87.509333zM785.7279999999998 65.34400000000005v-42.090667H391.317333v-60.352000000000004h394.496c33.28 0 60.266667000000005 27.157333 60.266667000000005 60.778667v41.642667M619.413333 263.38133300000004a43.264 39.509333 0 1 1 86.528 0 43.264 39.509333 0 1 1-86.528 0ZM800.789333 453.098667c16.170667-5.312 31.616000000000003-12.352 46.314667-20.309334v58.986667h-60.67199999999999v-34.752c4.821333-1.258667 9.664-2.368 14.357333-3.925333zM800.298667 83.60533299999997c-4.693333-1.536-9.536-2.666667-14.336-3.925333v-35.093333h60.33066600000001v59.157333c-14.634667-7.871999999999999-29.952-14.869333-45.994666-20.138667z"  horiz-adv-x="1024" />

    
    <glyph glyph-name="lishi" unicode="&#59060;" d="M812.459479 141.482842c10.779874-5.389937 16.168811-14.820826 17.515795-26.947684 0-10.778874-5.389937-21.557747-14.820827-28.293669-9.431889-6.736921-21.557747-6.736921-30.989636-1.347984l-127.9985 64.673242c-10.778874 5.389937-17.514795 16.167811-17.514795 28.294669V323.37471c0 17.515795 14.819826 32.336621 32.335621 32.336622s32.336621-14.819826 32.336621-32.336622v-126.650515l109.135721-55.241353z m-629.212626 342.22699c-9.431889 0-18.863779-2.693968-25.5997-9.43089-5.389937-5.389937-9.431889-14.820826-9.43189-22.905732 0-9.430889 2.693968-17.514795 9.43089-24.251715 6.736921-6.736921 14.820826-9.431889 25.5997-9.43189h140.124358c9.431889 0 18.863779 2.694968 25.5997 9.43189 6.736921 6.736921 9.431889 14.819826 9.431889 24.251715s-2.694968 17.515795-9.431889 22.905732c-6.735921 6.736921-16.167811 9.430889-25.5997 9.43089H183.245853z m0 161.682105c-12.126858 0-22.905732-6.735921-29.642653-17.514795-6.736921-9.431889-6.736921-22.905732 0-32.336621 6.736921-10.779874 16.167811-16.168811 29.641653-16.168811h408.248215c9.430889 0 17.515795 2.694968 24.251716 9.43189 6.736921 5.389937 9.431889 14.820826 9.43189 22.904732 0 9.431889-2.694968 17.515795-9.43189 24.252715s-14.819826 9.430889-24.251716 9.43089H183.245853z m688.495931-635.949548c48.505432 48.504432 72.757147 107.788737 74.105132 177.849916-1.347984 74.104132-25.5997 133.388437-74.105132 180.545884-47.157447 47.156447-106.440753 72.756147-179.1979 75.451116-72.757147-2.694968-132.040453-26.946684-179.1979-74.104131s-72.757147-106.440753-74.104131-179.1979c2.694968-72.757147 26.946684-130.693468 75.452115-179.1979 47.157447-47.157447 106.440753-71.409163 179.1979-74.104132 71.409163 1.346984 130.692468 25.5997 177.849916 72.757147z m45.809463 402.858279c59.284305-59.283305 90.273942-134.735421 92.968911-223.660379-2.694968-88.925958-32.337621-164.378074-92.968911-223.661379-59.282305-59.283305-134.734421-90.271942-223.659379-92.96691-74.105132 1.346984-137.430389 22.904732-191.324757 63.325258H91.625926c-36.378574 0-64.673242 29.641653-64.673242 66.020226v788.200763c0 35.031589 28.294668 66.021226 64.673242 66.021227h662.897232c36.379574 0 64.673242-29.641653 64.673242-66.020227v-309.891368c36.378574-16.167811 70.062179-39.073542 98.356847-67.367211z m0 0"  horiz-adv-x="1024" />

    
    <glyph glyph-name="huiliuxiang" unicode="&#58952;" d="M1024.342857 737.371429V846.971429c0 13.257143-10.742857 24-24 24H24c-13.257143 0-24-10.742857-24-24v-753.371429c0-13.257143 10.742857-24 24-24h99.428571v-172.228571h45.714286V69.60000000000002h320.114286v-172.228571h45.714286V69.60000000000002h320.114285v-172.228571h45.714286V69.60000000000002h99.542857c13.257143 0 24 10.742857 24 24V664h-45.714286v-548.685714H45.714286V825.257143h932.914285v-87.771429h45.714286zM900.571429 165.828571H121.485714c-13.257143 0-24 10.742857-24 24V726.514286c0 13.257143 10.742857 24 24 24H900.571429c13.257143 0 24-10.742857 24-24v-536.685715c0-13.142857-10.742857-24-24-24z m-757.371429 45.714286H878.857143V704.8H143.2v-493.257143z"  horiz-adv-x="1024" />

    
    <glyph glyph-name="chazuo" unicode="&#58916;" d="M901.445079 896H91.99746A92.16 92.16 0 0 1 0 804.00254v-809.447619a92.16 92.16 0 0 1 91.99746-91.997461h809.447619a92.16 92.16 0 0 1 91.997461 91.997461V804.00254A92.16 92.16 0 0 1 901.445079 896zM62.090159 804.00254a30.069841 30.069841 0 0 0 29.907301 29.907301h809.447619a30.069841 30.069841 0 0 0 29.907302-29.907301v-809.447619a30.069841 30.069841 0 0 0-29.907302-29.907302H91.99746a30.069841 30.069841 0 0 0-29.907301 29.907302zM646.257778 506.88a73.142857 73.142857 0 0 1 58.514285 34.620952 72.167619 72.167619 0 0 1 0 74.930794 73.142857 73.142857 0 0 1-58.514285 34.783492v9.102222h-79.319365v-162.539682h79.319365zM347.184762 506.88v-7.476825h79.319365v162.539682h-79.319365v-10.727619a73.142857 73.142857 0 0 1-58.514286-34.458413 72.167619 72.167619 0 0 1 0-74.930793 73.305397 73.305397 0 0 1 58.514286-34.946032zM496.72127 301.104762a30.55746 30.55746 0 0 1 30.55746 30.55746v59.489524a30.55746 30.55746 0 0 1-61.11492 0v-59.326984a30.55746 30.55746 0 0 1 30.55746-30.72zM362.788571 241.940317a30.72 30.72 0 0 1-20.48-52.825396l45.511112-43.560635a30.63873 30.63873 0 1 1 42.422857 44.210793l-45.511111 43.560635a30.88254 30.88254 0 0 1-21.942858 8.614603zM583.68 137.752381a30.232381 30.232381 0 0 1 21.130159 8.614603l46.323809 43.560635a30.069841 30.069841 0 0 1 9.427302 21.455238 29.582222 29.582222 0 0 1-9.427302 21.780318 30.55746 30.55746 0 0 1-43.235555 0.975238l-45.511111-43.560635a30.55746 30.55746 0 0 1-0.812699-43.235556 31.045079 31.045079 0 0 1 22.105397-9.589841z"  horiz-adv-x="1055" />

    
    <glyph glyph-name="deng1" unicode="&#58940;" d="M877.213538 109.21353799999997H128.433231a58.899692 58.899692 0 0 0-58.683077 58.683077v56.182154c0 238.867692 194.225231 433.073231 433.073231 433.073231 238.848 0 433.053538-194.225231 433.053538-433.073231v-56.201846a58.899692 58.899692 0 0 0-58.683077-58.683077zM132.568615 172.839385h739.682462V224.09846200000004c0 204.150154-166.124308 370.254769-370.254769 370.254769-204.150154 0-369.427692-166.104615-369.427693-370.254769v-51.239385z m210.747077-130.56l-31.40923-8.27077c-9.097846-2.481231-14.060308-11.579077-11.579077-19.849846 2.481231-9.078154 11.579077-14.040615 19.849846-11.559384l31.389538 8.270769c9.097846 2.461538 14.060308 11.559385 11.579077 19.830154-2.481231 9.078154-11.579077 14.040615-19.830154 11.559384z m38.833231-94.227693l-23.138461-23.138461a15.970462 15.970462 0 0 1 0-23.158154 15.970462 15.970462 0 0 1 23.138461 0l23.138462 23.158154a15.970462 15.970462 0 0 1 0 23.138461c-6.596923 5.769846-17.348923 5.769846-23.138462 0z m311.571692 81.821539l-33.043692 8.270769a16.541538 16.541538 0 0 1-20.676923-11.579077c-2.461538-9.097846 3.308308-17.368615 11.579077-19.849846l33.063385-8.270769a16.541538 16.541538 0 0 1 20.676923 11.579077c2.461538 8.270769-2.500923 17.368615-11.59877 19.849846z m-73.550769-86.784a16.955077 16.955077 0 0 1-23.965538 0 15.970462 15.970462 0 0 1 0-23.138462l23.965538-23.138461a16.955077 16.955077 0 0 1 23.965539 0 15.970462 15.970462 0 0 1 0 23.138461l-23.965539 23.138462z m-109.922461-2.481231a16.580923 16.580923 0 0 1-16.521847-16.541538v-32.216616c0-9.097846 7.443692-16.541538 16.541539-16.541538 9.078154 0 16.521846 7.443692 16.521846 16.541538v32.236308a16.580923 16.580923 0 0 1-16.541538 16.521846zM502.823385-25.501537999999982c-76.859077 0-139.677538 62.818462-139.677539 139.657846v15.714461c0 18.176 14.867692 33.063385 33.063385 33.063385h213.228307c18.176 0 33.043692-14.887385 33.043693-33.083077v-15.694769c0-76.859077-62.818462-139.657846-139.657846-139.657846zM413.538462 112.50215400000002a89.068308 89.068308 0 0 1 89.26523-87.591385 89.068308 89.068308 0 0 1 89.245539 87.591385h-178.510769z m89.26523 488.448a26.112 26.112 0 0 0-26.446769 26.446769V869.553231C476.356923 884.420923 487.936 896 502.823385 896c14.867692 0 26.446769-11.579077 26.446769-26.446769v-241.329231c0-14.867692-11.579077-27.273846-26.446769-27.273846z"  horiz-adv-x="1024" />

    
    <glyph glyph-name="bianzu1" unicode="&#58938;" d="M967.051636 896c28.113455 0 50.897455-22.807273 50.897455-50.897455v-356.282181c0-28.113455-22.807273-50.897455-50.897455-50.897455H50.897455A50.897455 50.897455 0 0 0 0 488.820364V845.102545C0 873.216 22.807273 896 50.897455 896h916.154181z m-101.794909-254.487273H152.692364a50.897455 50.897455 0 0 1 0-101.794909h712.564363a50.897455 50.897455 0 0 1 0 101.794909zM472.901818 270.24290900000005l72.145455-71.819636a136.797091 136.797091 0 0 1 15.057454-206.126546l30.231273-22.574545-60.928-81.547637-30.208 22.574546c-9.053091 6.749091-17.594182 14.126545-25.6 22.109091-93.346909 92.951273-93.672727 244.014545-0.698182 337.384727zM778.286545 321.163636l72.145455-71.819636a136.797091 136.797091 0 0 1 15.057455-206.126545l30.231272-22.574546-60.928-81.547636-30.208 22.574545c-9.053091 6.749091-17.594182 14.126545-25.6 22.109091-93.346909 92.951273-93.672727 244.014545-0.698182 337.384727z m-610.769454 0l72.145454-71.819636a136.797091 136.797091 0 0 1 15.057455-206.126545l30.231273-22.574546-60.928-81.547636-30.208 22.574545c-9.053091 6.749091-17.594182 14.126545-25.6 22.109091-93.346909 92.951273-93.672727 244.014545-0.698182 337.384727z"  horiz-adv-x="1024" />

    
    <glyph glyph-name="wUPSgongdianzhuangzhi" unicode="&#59023;" d="M872 896h-720c-84 0-152-68-152-152v-720c0-84 68-152 152-152H872c84 0 152 68 152 152v720c0 84-68 152-152 152z m88-872c0-48.4-39.6-88-88-88h-720c-48.4 0-88 39.6-88 88v720c0 48.4 39.6 88 88 88H872c48.4 0 88-39.6 88-88v-720zM148 428H880v320h-732v-320z m64 256H816v-192h-604v192zM276 656h104v-124h-104zM400 656h104v-124h-104zM524 656h104v-124h-104zM648 656h104v-124H648zM411.6 179.2c0-23.6-10-26.8-20-26.8s-20.4 3.2-20.4 28.4v92.8H324v-92.4c0-46.8 22.8-71.2 66.4-71.2 44.8 0 68.4 25.2 68.4 72.8v90.8H412v-94.4zM665.2 212c-15.2 6.8-19.6 10-20.8 11.2-2 2-2.4 3.6-2.4 4.8 0 1.2 0.4 2.8 3.2 4.4 3.2 2 8 3.2 14 3.2 11.6 0 21.2-2.8 29.6-8.4l12.4-8.4V267.6l-5.2 2c-10.4 4-23.6 6-38.4 6-18.4 0-34-4.4-45.6-12.8-10.8-8-17.2-18.8-18.4-32-3.6 21.2-18 42.4-61.2 42.4h-58v-161.2h46.8v50.8h7.6c18.4-0.4 34 4.4 46 14.8 11.6 9.6 18 22.4 19.2 38 3.6-17.2 16-30.4 38-39.6 18-7.6 22.8-11.2 24-12.4 2.8-2.8 2.8-4.8 2.8-5.6 0-1.2-0.4-2.8-2.8-4.4-2-1.2-6-2.8-14.4-2.8-13.2 0-24.4 4-34.8 12.8l-13.2 10.8v-52.8l4.4-2.4c11.6-6 26.8-8.8 44.4-8.8 20 0 35.6 4.4 46.8 12.4 12 8.8 18 21.6 18 38.4 0 11.2-3.2 21.2-10 29.6-5.6 7.2-16.4 14.4-32 21.2z m-143.6 21.2h5.6c17.6 0 19.2-8 19.2-15.2 0-9.6-3.2-15.6-19.2-15.6h-5.6v30.8z"  horiz-adv-x="1024" />

    
    <glyph glyph-name="jilianggui" unicode="&#58915;" d="M256 0H213.333333a42.666667 42.666667 0 0 0-42.666666 42.666667v256h682.666666v-256a42.666667 42.666667 0 0 0-42.666666-42.666667h-42.666667v213.333333H256v-213.333333z m597.333333 341.333333H170.666667V725.333333h682.666666v-384zM256 640v-213.333333h512V640zM298.666667 170.666667h426.666666v-170.666667H298.666667zM298.666667 597.333333h42.666666v-128H298.666667zM384 554.666667h42.666667v-85.333334H384zM469.333333 512h42.666667v-42.666667h-42.666667zM554.666667 512h42.666666v-42.666667h-42.666666zM640 512h85.333333v-42.666667h-85.333333z"  horiz-adv-x="1024" />

    
    <glyph glyph-name="shexiangtou" unicode="&#59100;" d="M91.350528 327.68l-67.4816 13.6704a20.0704 20.0704 0 0 1-23.8592-20.3776V-128l107.52 39.168V55.808c0 11.4688 8.96 20.736 19.968 20.736h143.5136a19.9168 19.9168 0 0 1 16.128 8.4992l75.6224 107.1104a21.1968 21.1968 0 0 1-6.656 30.464l-82.7904 46.4384a19.712 19.712 0 0 1-28.5696-11.776l-20.992-66.5088a20.0704 20.0704 0 0 0-19.0464-14.2336H127.497728a20.3776 20.3776 0 0 0-20.0192 20.736v110.08a20.5824 20.5824 0 0 1-16.1792 20.3264z m923.648 14.1312L249.660928 866.6112 203.785728 893.3376a19.6096 19.6096 0 0 1-26.112-5.9904L4.464128 636.16a21.1968 21.1968 0 0 1 5.5296-29.5424l23.1936-15.36 694.9376-441.6512a105.3184 105.3184 0 0 1 80.7424 16.4864l206.1824 141.1072a21.1968 21.1968 0 0 1 0 34.6112zM75.580928 507.904L46.089728 466.4832a21.248 21.248 0 0 1 4.1984-28.9792l1.2288-0.8704 693.504-452.352c8.6016-5.632 19.8144-3.9936 26.5728 3.7888l89.3952 103.1168a22.1184 22.1184 0 0 1-0.512 29.2864l-2.0992 2.3552a20.224 20.224 0 0 1-27.8016 2.1504l-61.7472-49.5104a20.2752 20.2752 0 0 0-24.2176-0.9216L102.665728 512.8704a19.5584 19.5584 0 0 1-27.136-4.9664z"  horiz-adv-x="1024" />

    
    <glyph glyph-name="jilianggui1" unicode="&#58954;" d="M426.666667 0H170.666667a42.666667 42.666667 0 0 0-42.666667 42.666667V768h341.333333v-725.333333a42.666667 42.666667 0 0 0-42.666666-42.666667z m-213.333334 170.666667v-85.333334h170.666667v85.333334z m-42.666666 85.333333v-42.666667h256v42.666667z m42.666666 170.666667v-85.333334h170.666667v85.333334zM170.666667 512v-42.666667h256V512z m213.333333 170.666667v-85.333334h42.666667V682.666667zM256 682.666667v-85.333334h85.333333V682.666667zM170.666667 682.666667v-85.333334h42.666666V682.666667zM853.333333 0h-256a42.666667 42.666667 0 0 0-42.666666 42.666667V768h341.333333v-725.333333a42.666667 42.666667 0 0 0-42.666667-42.666667z m-213.333333 170.666667v-85.333334h170.666667v85.333334z m-42.666667 85.333333v-42.666667h256v42.666667z m42.666667 170.666667v-85.333334h170.666667v85.333334z m-42.666667 85.333333v-42.666667h256V512z m213.333334 170.666667v-85.333334h42.666666V682.666667z m-128 0v-85.333334h85.333333V682.666667z m-85.333334 0v-85.333334h42.666667V682.666667z"  horiz-adv-x="1024" />

    
    <glyph glyph-name="juxing1" unicode="&#58913;" d="M377.263158 896h269.473684v-1024H377.263158z"  horiz-adv-x="1024" />

    
    <glyph glyph-name="juxing2" unicode="&#60201;" d="M1024 518.736842l0-269.473684-1024 0L0 518.736842z"  horiz-adv-x="1024" />

    
    <glyph glyph-name="gongshuaiyinshu-" unicode="&#58951;" d="M220.645 209.087v499.736h-99.907v-599.694h799.009v99.957h-699.101zM633.562 463.401l-204.211 204.31-158.753-204.31v-204.36h589.853l-90.766 317.855z"  horiz-adv-x="1024" />

    
    <glyph glyph-name="Soclowalarm" unicode="&#59089;" d="M852.817328-123.91396H171.193672c-30.327296 0-55.000537 24.673241-55.000537 55.000537V732.922407c0 30.327296 24.673241 55.000537 55.000537 55.000538h681.623656c30.327296 0 55.000537-24.673241 55.000537-55.000538v-801.83583c0-30.327296-24.673241-55.000537-55.000537-55.000537zM171.193672 757.922652c-13.785135 0-25.000244-11.21511-25.000244-25.000245v-801.83583c0-13.785135 11.21511-25.000244 25.000244-25.000244h681.623656c13.785135 0 25.000244 11.21511 25.000244 25.000244V732.922407c0 13.785135-11.21511 25.000244-25.000244 25.000245H171.193672zM582.005684 757.922652H442.004316c-8.284081 0-15.000146 6.716066-15.000146 15.000146v104.001016c0 8.284081 6.716066 15.000146 15.000146 15.000146h140.001368c8.284081 0 15.000146-6.716066 15.000146-15.000146v-104.001016c0-8.284081-6.716066-15.000146-15.000146-15.000146z m-125.001221 30.000293h110.001074v74.000722H457.004463v-74.000722zM378.197693 660.921704l319.073116-116.682139-226.595213-159.395557 212.786078-152.203486-356.722483 165.578617L556.617436 559.886718zM310.509032 31.889561c4.811047-4.202041 11.24711-7.657075 19.311189-10.367101 8.063079-2.711026 15.719154-4.06504 22.970224-4.06504 22.088216 0 33.133324 7.859077 33.133324 23.580231 0 4.403043-1.186012 8.367082-3.557035 11.892116-2.373023 3.521034-5.625055 6.640065-9.757095 9.351091-4.13404 2.709026-11.892116 6.876067-23.275228 12.501122-15.789154 7.859077-26.189256 15.159148-31.202304 21.902214-5.015049 6.741066-7.521073 14.448141-7.521074 23.122226 0 13.076128 5.250051 23.443229 15.754154 31.101304 10.502103 7.656075 23.748232 11.485112 39.740388 11.485112 15.652153 0 27.137265-1.897019 34.455337-5.691056v-22.157216c-9.487093 6.571064-21.48021 9.859096-35.979352 9.859096-9.622094 0-17.466171-2.01802-23.529229-6.048059-6.065059-4.032039-9.097089-9.640094-9.097089-16.820164 0-6.370062 2.100021-11.554113 6.302061-15.551152 4.200041-3.999039 13.31413-9.452092 27.340267-16.36316 15.449151-7.387072 26.255256-14.772144 32.422317-22.157216 6.16506-7.386072 9.24909-15.687153 9.24909-24.900243 0-13.822135-5.015049-24.428239-15.042147-31.813311-10.029098-7.386072-23.953234-11.078108-41.772408-11.078108-6.235061 0-13.502132 0.864008-21.801212 2.592025-8.301081 1.728017-14.34814 3.878038-18.142178 6.454063v23.171226zM350.452422-6.328812c-6.614065 0-14.36014 0.914009-23.024224 2.718027-9.164089 1.907019-15.801154 4.316042-20.290199 7.364072l-2.629025 1.785017v39.560386l9.947097-8.689084c4.189041-3.659036 10.001098-6.754066 17.275169-9.19809 7.407072-2.490024 14.491142-3.753037 21.059205-3.753037 24.049235 0 27.133265 9.396092 27.133265 17.580172 0 3.212031-0.829008 6.007059-2.535025 8.542083-1.913019 2.840028-4.629045 5.426053-8.070078 7.684075-3.911038 2.563025-11.530113 6.647065-22.642221 12.139119-16.817164 8.371082-27.724271 16.121157-33.359326 23.701231-5.777056 7.766076-8.707085 16.750164-8.707085 26.702261 0 15.040147 6.13006 27.136265 18.219178 35.949351 11.502112 8.385082 26.062255 12.637123 43.274422 12.637123 16.782164 0 28.956283-2.08202 37.216364-6.364062l3.238031-1.680016v-37.259364l-9.417092 6.521064c-8.422082 5.834057-19.378189 8.792086-32.563318 8.792086-8.373082 0-15.172148-1.697017-20.208197-5.04505-4.378043-2.911028-6.418063-6.668065-6.418063-11.823115 0-4.699046 1.451014-8.363082 4.437044-11.20311 2.571025-2.448024 9.142089-7.093069 25.856252-15.329149 16.322159-7.804076 27.587269-15.563152 34.375336-23.693232 7.063069-8.461083 10.644104-18.133177 10.644104-28.74628 0-15.771154-5.882057-28.100274-17.484171-36.644358-11.031108-8.128079-26.282257-12.24812-45.327443-12.24812z m-33.943331 18.540181c2.651026-1.253012 6.826067-2.713026 13.36513-4.07404 7.861077-1.636016 14.784144-2.466024 20.579201-2.466024 16.42916 0 29.286286 3.334033 38.214374 9.909097 8.479083 6.244061 12.600123 15.070147 12.600123 26.981264 0 7.836077-2.569025 14.724144-7.855077 21.056205-5.582055 6.684065-15.811154 13.611133-30.404297 20.589201-14.777144 7.281071-24.206236 12.973127-28.889282 17.431171-5.417053 5.15205-8.16508 11.848116-8.16508 19.896194 0 9.151089 4.07204 16.695163 11.775115 21.816213 7.039069 4.680046 16.073157 7.052069 26.851262 7.052069 11.29411 0 21.334208-1.909019 29.979293-5.689056v8.071079c-6.533064 2.396023-16.078157 3.607035-28.455278 3.607035-14.619143 0-26.800262-3.477034-36.205353-10.334101-8.942087-6.519064-13.28913-15.105148-13.28913-26.252256 0-7.419072 2.07202-13.811135 6.335062-19.541191 4.422043-5.947058 14.199139-12.714124 29.062284-20.112196 11.691114-5.777056 19.511191-9.984098 23.890233-12.854126 4.784047-3.139031 8.634084-6.845067 11.444112-11.017107 3.04103-4.520044 4.581045-9.647094 4.581044-15.244149 0-13.494132-6.789066-29.580289-39.133382-29.580289-7.870077 0-16.242159 1.473014-24.882243 4.378043-4.167041 1.400014-7.973078 3.011029-11.399111 4.818047v-8.441083zM427.798178 79.151023c0 25.409248 6.876067 45.635446 20.632201 60.677593 13.754134 15.042147 32.387316 22.56322 55.899546 22.56322 21.885214 0 39.501386-7.353072 52.851516-22.055216 13.34813-14.704144 20.022196-33.846331 20.022196-57.42556 0-25.546249-6.845067-45.805447-20.531201-60.778594-13.688134-14.976146-31.981312-22.462219-54.883536-22.462219-22.359218 0-40.282393 7.352072-53.765525 22.055215-13.484132 14.703144-20.225198 33.846331-20.225197 57.425561z m21.344208 1.626016c0-19.041186 4.861047-34.302335 14.584143-45.787447 9.723095-11.484112 22.411219-17.228168 38.063371-17.228169 16.803164 0 29.999293 5.505054 39.587387 16.517162 9.587094 11.010108 14.38214 26.407258 14.38214 46.193451 0 20.327199-4.693046 36.013352-14.077137 47.058459-9.386092 11.043108-22.242217 16.566162-38.571377 16.566162-16.058157 0-29.067284-5.828057-39.028381-17.481171-9.960097-11.654114-14.940146-26.934263-14.940146-45.838447zM501.7899-6.328812c-24.007234 0-43.584426 8.074079-58.188568 24.000235-14.467141 15.774154-21.803213 36.460356-21.803213 61.4796 0 26.838262 7.471073 48.614475 22.205217 64.726632 14.874145 16.267159 35.170343 24.515239 60.327589 24.515239 23.54323 0 42.820418-8.082079 57.29356-24.021234 14.31914-15.775154 21.580211-36.452356 21.58021-61.4586 0-26.971263-7.437073-48.781476-22.103215-64.826633-14.806145-16.201158-34.761339-24.415238-59.31158-24.415239z m2.541025 162.720589c-21.953214 0-38.789379-6.742066-51.471503-20.612201-12.648124-13.830135-19.061186-32.883321-19.061186-56.628553 0-21.921214 6.274061-39.877389 18.647182-53.369521 12.409121-13.532132 28.549279-20.110196 49.343482-20.110197 21.336208 0 37.84037 6.709066 50.455493 20.510201 12.581123 13.765134 18.960185 32.851321 18.960185 56.730554 0 21.931214-6.213061 39.89539-18.46518 53.392521-12.27312 13.516132-28.108274 20.087196-48.408473 20.087196z m-2.541025-144.629412c-17.42417 0-31.77131 6.511064-42.642416 19.351189-10.621104 12.545123-16.005156 29.254286-16.005156 49.664485 0 20.286198 5.511054 37.020362 16.37916 49.736486 11.107108 12.994127 25.772252 19.583191 43.589425 19.583191 18.092177 0 32.607318-6.285061 43.143422-18.681183 10.2881-12.110118 15.505151-29.250286 15.505151-50.943497 0-21.183207-5.335052-38.050372-15.856155-50.13449-10.735105-12.32612-25.57625-18.576181-44.113431-18.576181z m1.321013 126.334234c-14.34714 0-25.62125-5.031049-34.467336-15.380151-8.959087-10.482102-13.501132-24.59324-13.501132-41.939409 0-17.492171 4.429043-31.593309 13.164128-41.910409 8.605084-10.164099 19.557191-15.104148 33.483327-15.104148 15.123148 0 26.59126 4.729046 35.063343 14.457141 8.563084 9.835096 12.906126 24.051235 12.906126 42.253413 0 18.768183-4.256042 33.293325-12.649124 43.173421-8.265081 9.723095-19.386189 14.450141-33.999332 14.450142zM715.328986 8.818336c-11.586113-6.09906-26.120255-9.147089-43.602426-9.147089-22.56322 0-40.588396 7.16507-54.070528 21.49621-13.484132 14.33114-20.226198 33.286325-20.226198 56.865555 0 25.341247 7.587074 45.736447 22.766223 61.186598 15.178148 15.448151 34.455336 23.173226 57.831564 23.173226 15.043147 0 27.476268-2.135021 37.301365-6.403063v-21.242207c-11.24811 6.233061-23.614231 9.351091-37.097363 9.351091-17.550171 0-31.848311-5.844057-42.891419-17.532171-11.045108-11.688114-16.567162-27.459268-16.567161-47.312462 0-18.838184 5.14805-33.79433 15.449151-44.872438 10.299101-11.078108 23.783232-16.618162 40.451395-16.618163 15.584152 0 29.135285 3.522034 40.654397 10.570104v-19.515191zM671.72756-6.328812c-24.180236 0-43.842428 7.868077-58.440571 23.385229-14.502142 15.413151-21.855213 35.929351-21.855213 60.977595 0 26.853262 8.23808 48.854477 24.485239 65.391639 16.277159 16.567162 37.175363 24.968244 62.111606 24.968243 15.799154 0 29.152285-2.321023 39.691388-6.900067l3.609035-1.567015v-35.362346l-8.908087 4.937049c-10.296101 5.706056-21.799213 8.599084-34.188334 8.599084-15.976156 0-28.578279-5.12005-38.529376-15.652153-9.906097-10.482102-14.929146-25.015244-14.929146-43.191422 0-17.185168 4.657045-30.907302 13.843135-40.786398 9.19909-9.895097 20.993205-14.704144 36.058353-14.704144 14.391141 0 27.016264 3.260032 37.523366 9.688095l9.131089 5.587054v-33.84133l-3.205031-1.688017c-12.403121-6.532064-28.013274-9.841096-46.397453-9.841096z m6.300061 162.720589c-21.901214 0-39.418385-6.993068-53.551523-21.378209-14.162138-14.414141-21.046206-33.053323-21.046205-56.980556 0-21.891214 6.257061-39.640387 18.596181-52.754515 12.412121-13.193129 28.67028-19.607191 49.700486-19.607192 14.816145 0 27.443268 2.317023 37.602367 6.895068v5.914057c-10.316101-4.463044-21.929214-6.718066-34.654338-6.718065-18.325179 0-33.413326 6.235061-44.846438 18.533181-11.316111 12.170119-17.055167 28.64328-17.055167 48.957478 0 21.345208 6.12606 38.648377 18.206178 51.433502 12.169119 12.880126 28.067274 19.41119 47.252461 19.41119 10.993107 0 21.414209-1.968019 31.097304-5.861057v7.664074c-8.468083 2.982029-18.973185 4.491044-31.301306 4.491044z"  horiz-adv-x="1024" />

    
    <glyph glyph-name="leijichongdianliang" unicode="&#58888;" d="M647.8 708.3h-43.4v63H430.7v-63h-86.8v86.8c0 24.1 19.4 43.4 43.4 43.4h260.5c24 0 43.4-19.4 43.4-43.4v-86.8h-43.4z m195.4-784.2H191.8c-24 0-43.4 19.6-43.4 43.5v784c0 24 19.4 43.5 43.3 43.5h152.1v-86.8l-108.6 0.1-0.6-697.4h565l0.2 697.6-108.6-0.3v86.8h152.1c23.9 0 43.3-19.6 43.3-43.5v-784c0-24-19.4-43.5-43.4-43.5zM661.6 320.9l-152-217.1-71.2 49.8 103.9 148.8H409c-35.1 0-55.7 39.5-35.6 68.3l152 217.1 71.1-49.8-104.1-148.8h133.7c35.1 0 55.7-39.5 35.5-68.3z"  horiz-adv-x="1024" />

    
    <glyph glyph-name="x-GLB" unicode="&#59078;" d="M190.818125 58.041765000000055c-36.845984 0-66.823332 30.407277-66.823332 67.678073V733.62995l-22.223261-22.520118h755.560194c36.65661 0 66.546949-30.366332 66.546948-67.463108v-506.784546c0-12.447483 9.939561-22.520118 22.213026-22.520118 12.278582 0 22.223262 10.087989 22.223261 22.520118V643.641605c0 61.950797-49.764342 112.498226-110.983235 112.498226H79.553388v-630.419993c0-62.129935 49.871825-112.708072 111.264737-112.708072h655.294487c12.278582 0 22.223262 10.082871 22.223262 22.509881 0 12.437247-9.939561 22.520118-22.223262 22.520118H190.818125zM209.68896 127.76712199999997a19.996841 19.996841 0 0 0-19.996841 19.991722V635.431999a19.996841 19.996841 0 1 0 39.993683 0v-487.668036a19.986605 19.986605 0 0 0-19.996842-19.996841zM322.453333 127.219473a19.986605 19.986605 0 0 0-19.996841 19.986605V634.874114a19.996841 19.996841 0 1 0 39.993682 0V147.20607800000005a19.986605 19.986605 0 0 0-19.996841-19.986605zM698.503475 127.219473a19.986605 19.986605 0 0 0-19.986604 19.986605V634.874114a19.991723 19.991723 0 1 0 39.988564 0V147.20607800000005a19.986605 19.986605 0 0 0-20.00196-19.986605zM822.942482 130.77151000000003a20.001959 20.001959 0 0 0-20.00196 20.001959v487.662918a19.996841 19.996841 0 1 0 39.988564 0v-487.6578a19.996841 19.996841 0 0 0-19.986604-20.007077zM444.6608 127.219473a19.981486 19.981486 0 0 0-19.996841 19.986605V634.874114a19.996841 19.996841 0 1 0 39.993682 0V147.20607800000005a19.986605 19.986605 0 0 0-19.996841-19.986605zM572.974291 127.219473a19.986605 19.986605 0 0 0-19.996841 19.986605V634.874114a19.996841 19.996841 0 1 0 39.993682 0V147.20607800000005a19.991723 19.991723 0 0 0-19.996841-19.986605zM413.035389-128.01023600000008H195.214666v125.646903h217.825841v-125.646903z m-166.638636 51.182086h115.461668v23.282731H246.396753v-23.282731zM870.74655-128.01023600000008h-217.820722v125.646903h217.820722v-125.646903z m-166.638636 51.182086h115.45655v23.282731h-115.45655v-23.282731zM854.997822 796.604388H192.875645a23.031939 23.031939 0 0 0 0 46.063878h662.127296a23.031939 23.031939 0 1 0-0.005119-46.063878zM23.053483 207.80055000000004a23.031939 23.031939 0 0 0-23.031939 23.031939V630.774429a23.031939 23.031939 0 0 0 46.063878 0v-399.94194a23.031939 23.031939 0 0 0-23.031939-23.031939zM1022.910893 207.80055000000004a23.031939 23.031939 0 0 0-23.031939 23.031939V630.774429a23.031939 23.031939 0 0 0 46.063878 0v-399.94194a23.031939 23.031939 0 0 0-23.031939-23.031939z"  horiz-adv-x="1046" />

    
    <glyph glyph-name="xinxiguanli" unicode="&#58895;" d="M268.8 678.1h401.1V631H268.8v47.1m0-170.6h401.1v-47.2H268.8v47.2m0-169.2h229.3v-47.1H268.8v47.1m712.5-164.7C946.4 231.9 947 233 947 233s-120.6-33.8-143.1 81.8H734S714.7 199 591.5 233.3c-35.6-59.4-36.8-61.2-36.9-61.3 0.1 0 96.5-67.4 0-158.9l37.4-61.5s106.5 45.9 141.4-79.6h70.7s22.2 115.3 141.9 81.2c34.1 58.2 34.7 58.8 34.7 58.8s-90.3 78 0.6 161.6zM767.4-33.1c-69.8 0-126.5 56.6-126.5 126.5s56.6 126.5 126.5 126.5S894 163.3 894 93.4s-56.7-126.5-126.6-126.5zM165.9-77.8c-37.8 0-68.4 30.6-68.4 68.4V774.1c0 37.8 30.6 68.4 68.4 68.4H776c37.8 0 68.4-30.6 68.4-68.4v-411.4H896v448C896 857.8 857.8 896 810.7 896H128C80.9 896 42.7 857.8 42.7 810.7v-853.3c0-47.1 38.2-85.3 85.3-85.3h392.5v50.2H195.9"  horiz-adv-x="1024" />

    
    <glyph glyph-name="tuoputu" unicode="&#59190;" d="M957.12 225.024h-47.744V352.192a63.616 63.616 0 0 1-63.616 63.616H543.744V542.976h47.744a63.552 63.552 0 0 1 63.616 63.552V765.568a63.552 63.552 0 0 1-63.616 63.552H432.512a63.552 63.552 0 0 1-63.616-63.552v-158.976c0-35.136 28.48-63.552 63.616-63.552h47.68v-127.168h-302.08a63.616 63.616 0 0 1-63.552-63.616v-127.168h-47.68a63.488 63.488 0 0 1-63.616-63.488v-158.976c0-35.136 28.48-63.616 63.616-63.616h158.912a63.552 63.552 0 0 1 63.552 63.616v158.976a63.424 63.424 0 0 1-63.552 63.488h-47.68V352.192h302.08v-127.168h-47.68a63.488 63.488 0 0 1-63.616-63.488v-158.976c0-35.136 28.48-63.616 63.616-63.616h158.976a63.616 63.616 0 0 1 63.616 63.616v158.976a63.488 63.488 0 0 1-63.616 63.488h-47.744V352.192h302.016v-127.168h-47.616a63.488 63.488 0 0 1-63.616-63.488v-158.976c0-35.136 28.48-63.616 63.616-63.616h158.976a63.616 63.616 0 0 1 63.616 63.616v158.976a63.552 63.552 0 0 1-63.616 63.488zM432.512 606.592V765.568h158.976v-158.976H432.512z m-206.72-604.096H66.88v158.976h158.912v-158.976z m365.696 158.976v-158.976H432.512v158.976h158.976z m365.632-158.976h-158.976v158.976h158.976v-158.976z"  horiz-adv-x="1024" />

    
    <glyph glyph-name="xitongkongzhi" unicode="&#59149;" d="M642.048 480.256v4.096c0 10.24 0 20.48-2.048 30.72l59.392 59.392c-10.24 43.008-30.72 82.432-55.296 119.296l-84.48-10.24c-8.192 8.192-16.384 16.384-24.576 22.528V790.528c-36.864 22.528-78.336 36.864-123.392 45.056L358.4 770.048h-4.096c-10.24 0-20.48 0-30.72-2.048L264.192 827.392c-43.008-10.24-82.432-30.72-119.296-55.296l8.192-84.48c-8.192-8.192-16.384-16.384-22.528-24.576H46.08c-18.432-36.864-34.816-78.336-40.96-121.344l63.488-53.248v-4.096c0-10.24 0-20.48 2.048-30.72L11.264 393.728c10.24-43.008 30.72-82.432 55.296-119.296l84.48 8.192c8.192-8.192 16.384-16.384 24.576-22.528v-84.48c36.864-22.528 78.336-36.864 123.392-45.056L352.256 194.56h4.096c10.24 0 20.48 0 30.72 2.048l59.392-59.392c43.008 10.24 82.432 30.72 119.296 55.296l-8.192 84.48c8.192 8.192 16.384 16.384 22.528 24.576h84.48c22.528 36.864 36.864 78.336 45.056 123.392l-67.584 55.296z m-285.696-150.016c-84.48 0-152.064 67.584-152.064 152.064s67.584 152.064 152.064 152.064 152.064-67.584 152.064-152.064-67.584-152.064-152.064-152.064zM1014.784 80.384l-45.056 30.72c0 6.144 2.048 12.288 2.048 20.48s0 14.336-2.048 20.48l43.008 32.768c4.096 4.096 4.096 8.192 2.048 12.288l-40.96 69.632c-2.048 2.048-6.144 4.096-12.288 2.048l-49.152-20.48c-10.24 8.192-22.528 14.336-34.816 20.48l-8.192 51.2c2.048 6.144-4.096 10.24-8.192 10.24h-80.384c-4.096 0-10.24-4.096-10.24-8.192l-8.192-55.296c-12.288-4.096-22.528-12.288-34.816-20.48l-47.104 20.48c-6.144 2.048-10.24 0-14.336-4.096l-40.96-69.632c-2.048-2.048 0-8.192 4.096-12.288l43.008-30.72c0-6.144-2.048-12.288-2.048-20.48s0-14.336 2.048-20.48l-43.008-32.768c-4.096-4.096-4.096-8.192-2.048-12.288l40.96-69.632c2.048-2.048 6.144-4.096 12.288-2.048l49.152 20.48c10.24-8.192 22.528-14.336 34.816-20.48l8.192-51.2c0-4.096 4.096-8.192 10.24-8.192h80.384c4.096 0 10.24 4.096 10.24 8.192l8.192 51.2c12.288 6.144 24.576 12.288 34.816 20.48l49.152-20.48c4.096-2.048 10.24 0 12.288 4.096l40.96 69.632c0 6.144 0 12.288-4.096 14.336z m-193.024-18.432c-38.912 0-69.632 30.72-69.632 69.632 0 36.864 32.768 69.632 69.632 69.632 38.912 0 69.632-30.72 69.632-69.632s-32.768-69.632-69.632-69.632z"  horiz-adv-x="1024" />

    
    <glyph glyph-name="fadianliang" unicode="&#59294;" d="M919.344 316.405c-18.872 0-34.187-15.25-34.187-34.037 0-18.785 15.315-34.035 34.187-34.035 18.874 0 34.189 15.249 34.189 34.035-0.001 18.825-15.316 34.037-34.189 34.037z m-27.72 136.941c0-18.824 15.315-34.036 34.189-34.036 18.872 0 34.188 15.25 34.188 34.036s-15.315 34.036-34.188 34.036c-18.874 0.001-34.189-15.249-34.189-34.036z m-277.413-440.9c-19.336 0-35.039-15.44-35.039-34.454s15.703-34.454 35.039-34.454 35.039 15.44 35.039 34.454-15.664 34.454-35.039 34.454z m243.187 165.19c-18.872 0-34.188-15.44-34.188-34.454 0-19.015 15.315-34.454 34.188-34.454 18.874 0 34.189 15.44 34.189 34.454s-15.278 34.454-34.189 34.454z m-103.88-102.945c-18.873 0-34.188-15.63-34.188-34.873 0-19.281 15.315-34.872 34.188-34.872 18.874 0 34.189 15.63 34.189 34.872 0.039 19.243-15.276 34.873-34.189 34.873zM512 0c-51.868 0-102.15 10.144-149.451 30.15-45.719 19.337-86.791 47.034-122.077 82.321-35.288 35.286-62.984 76.359-82.321 122.078C138.144 281.85 128 332.133 128 384s10.144 102.15 30.15 149.451c19.338 45.719 47.034 86.791 82.321 122.077 35.286 35.287 76.359 62.984 122.077 82.321C409.85 757.856 460.132 768 512 768s102.15-10.144 149.451-30.15c45.719-19.337 86.791-47.034 122.078-82.321 35.287-35.286 62.984-76.359 82.321-122.077 0.44-1.039 0.868-2.083 1.298-3.124l59.175 24.38C859.194 717.452 698.976 832 511.999 832c-247.424 0-448-200.576-448-448s200.576-448 448-448l0.001 64zM673.874 443.766h-65.788c-14.271 0-53.813-7.101-67.667 1.323-2.645 9.537 6.126 27.081 8.424 35.435 6.822 24.227 13.575 48.523 20.398 72.749 9.886 35.296 19.771 70.591 29.657 105.956 3.898 13.784-14.271 19.701-21.86 9.259-79.015-108.741-158.099-217.412-237.253-326.153-5.5-7.588 1.949-18.031 10.373-18.031h96.21c6.753 0 32.093 3.968 36.34-2.019 3.829-5.291-3.62-20.746-5.291-26.663-17.474-62.307-34.947-124.544-52.352-186.85-3.899-13.784 14.271-19.701 21.86-9.259 79.084 108.671 158.168 217.412 237.253 326.083 5.568 7.658-1.881 18.17-10.304 18.17z"  horiz-adv-x="1024" />

    
    <glyph glyph-name="xudianchi-copy" unicode="&#58890;" d="M693.333333 426.666667h128c17.066667 0 32 14.933333 32 32s-14.933333 32-32 32h-128c-17.066667 0-32-14.933333-32-32s14.933333-32 32-32zM981.333333 682.666667h-64V789.333333c0 23.466667-19.2 42.666667-42.666666 42.666667H640c-23.466667 0-42.666667-19.2-42.666667-42.666667v-106.666666h-170.666666V789.333333c0 23.466667-19.2 42.666667-42.666667 42.666667H149.333333c-23.466667 0-42.666667-19.2-42.666666-42.666667v-106.666666H42.666667c-23.466667 0-42.666667-19.2-42.666667-42.666667v-640c0-23.466667 19.2-42.666667 42.666667-42.666667h938.666666c23.466667 0 42.666667 19.2 42.666667 42.666667V640c0 23.466667-19.2 42.666667-42.666667 42.666667zM661.333333 768h192v-85.333333h-192V768zM170.666667 768h192v-85.333333H170.666667V768z m789.333333-746.666667H64V618.666667h896v-597.333334zM202.666667 426.666667H234.666667v-32c0-17.066667 14.933333-32 32-32s32 14.933333 32 32V426.666667h32c17.066667 0 32 14.933333 32 32s-14.933333 32-32 32H298.666667v32c0 17.066667-14.933333 32-32 32s-32-14.933333-32-32V490.666667H202.666667c-17.066667 0-32-14.933333-32-32S185.6 426.666667 202.666667 426.666667z"  horiz-adv-x="1024" />

    
    <glyph glyph-name="yunhangcanshu" unicode="&#58884;" d="M740.5 25.6H85.4c-11 0-20 9-20 20v6c0 11 9 20 20 20h655.2c11 0 20-9 20-20v-6c-0.1-11-9.1-20-20.1-20zM937.3 25.6H829.1c-11 0-20 9-20 20v6c0 11 9 20 20 20h108.2c11 0 20-9 20-20v-6c0-11-9-20-20-20zM893.8 137.9V255.4 389.9c0 20.3-12.7 37.4-32.3 43.2-11.1 3.3-24.5 1.8-35.9 1.8h-38.8c-8.7 0-16.9-1.3-24.9-5.1-14.7-6.9-23.6-21.9-24.2-37.9-0.4-11.8 0-23.8 0-35.6V137c0-12.3 10.5-23.1 23-23l96.4 0.9c4.5 0 9.1 0.1 13.6 0.1 12.1 0 23.6 10.4 23.1 22.9-0.6 12.4-10.1 23.1-23 23l-96.4-0.9c-4.5 0-9.1-0.1-13.6-0.1l23-23V249 387.2v4.3c0 0.5 0.1 1.5 0 1.8-0.1-1.2-0.3-2.4-0.4-3.6 0.2 0.8 0.4 1.6 0.7 2.4 0.1-1.8-1.9-4.7-0.6-2.1 2.1 4.1-3.4-4.1-0.3-0.7 2.9 3.2-4.4-3.3 0.2-0.1 2.3 1.6-5.5-1.3-1.1-0.5 0.5 0.1 0.9 0.2 1.4 0.4 2.5 0.5 1.8 0.4-1.9-0.2 0.3-0.1 1.3 0.1 1.8 0 1.3-0.1 2.7 0 4.1 0H848.5c3.1 0.1 0.8-0.6-1.8 0.4 0.8-0.3 3.2-1 4.1-1.1l-3 1.2c0.8-0.4 1.6-0.8 2.3-1.3-2.2-0.5-3.6 3.8-1.1 0.7 1.9-2.3-2.8 5.1-0.8 1.1 2.1-4.1-1 5.4-0.2 0.9 0.6-3.8 0.1 5.2-0.1 0.7-0.4-13.3 0-26.6 0-39.9V137.8c0-12 10.6-23.6 23-23 12.3 0.7 22.9 10.2 22.9 23.1zM702.6 137.9v51.4 118.3 131.1 91.2c0 4.7 0.1 9.4 0 14.1-0.7 23.5-18 42.3-41.8 43-6.7 0.2-13.5 0-20.2 0-17.4 0-35 0.5-52.4 0-23.7-0.7-41-19.7-41.6-43V138c0-12.4 10.5-23 23-23h110c12-0.1 23.5 10.5 23 22.9-0.6 12.5-10.1 23-23 23h-110l23-23v49.6 115.1 129.8 93.7c0 5.8 0.2 11.7 0 17.5v0.3c-0.1 1.5 0.3 2.5-0.2-0.2-0.6-3.7 0.1-0.6 0.3 0.3 0.4 2.4-2.7-4.2-0.5-1.2 2.3 3.2-1.3-1.5-1.4-1.5-0.1 0 1.7 1.6 1.8 1.8-0.4-1.7-4.2-2.8-1.6-1.4 3.2 1.8-1.7-0.7-2-0.8 3.8 1.3-5.1 0.1-1 0h0.5c6.9-0.2 13.7 0 20.6 0 17.3 0 34.6-0.5 51.9 0 4.3 0.1-4 1.1-0.7 0-5.7 1.8-3.4 1.7-2 0.8 3.2-2.1-1.6 1.2-1.6 1.4 0 0.1 1.6-1.8 1.8-1.8-2.1 2.8-2.6 3.5-1.7 2 0.4-0.6 0.7-1.1 1-1.7-0.1 0.1-2.3 5.5-0.9 1.7 0.9-2.4-1.2-1.4-0.2 2-0.1-0.2 0.1-1.2 0-1.5v-0.4c-0.1-2 0-3.9 0-5.9v-399.6c0-12 10.6-23.6 23-23 12.3 0.6 22.9 10.1 22.9 23zM499.3 139.9v43.4 98.9 107.3 70 6.1c-0.1 11.4-3.9 21.7-11.5 30.2-13.9 15.8-34.5 13.6-53.3 13.6h-46.9c-25 0-44.1-18.8-44.3-43.9-0.2-17.8 0-35.7 0-53.5v-272c0-12.4 10.5-23 23-23h110c12.1-0.1 23.6 10.5 23 22.9-0.6 12.5-10.1 23-23 23h-110l23-23v41.6 95.7 106.1 72.8 7.9 1.9 0.4c-0.2 4.3-1.3-4.4-0.1-0.5 1.2 4-2.1-4.2-0.2-0.6 1.4 2.7 0.6-1.3-1.3-1.5 0.3 0 1.1 1.2 1.4 1.4 2 1.4-2.4-1.5-2.1-1.6 0.1 0 2.4 1.4 2.3 1.3 0 0-4.7-1.9-2.4-1.2 2.5 0.7-4.8 0-2.2-0.2 1.1-0.1 2.4 0 3.6 0h66.4c1 0 3.1-0.3 4-0.1 0.1 0-5.2 0.8-2.8 0.3 2.8-0.7-4.3 2.4-1.8 0.9 0.2-0.1 1.5-1 1.7-1 0.2 0.1-4 3-2.1 1.6 0.8-0.6 2.5-3 0.4-0.1-2.1 2.8-0.6 0.8-0.3 0.2 0.4-0.7 1.3-2.8 0 0.3-1.7 4.1 0-1 0.1-1.1-0.6 0.9-0.3 5.2-0.4 1.8V140c0-12 10.6-23.6 23-23 12.3 0.5 22.8 10 22.8 22.9zM292.1 140.7v62.7 144.7 164.3 121.5c0 8.3 0.1 16.6 0 24.9-0.1 16-8.1 31.2-22.5 38.8-11.6 6.2-24.3 5.3-36.9 5.3H193c-13.1 0-26.3 0.7-37.7-7.3-12.4-8.7-19.1-22-19.2-37.1v-518.6c0-12.4 10.5-23.1 23-23 32.1 0.2 64.3 0.4 96.4 0.7 4.5 0 9.1 0.1 13.6 0.1 12 0 23.6 10.5 23 23-0.6 12.4-10.1 23.1-23 23-32.1-0.2-64.3-0.4-96.4-0.7-4.5 0-9.1-0.1-13.6-0.1l23-23v60.6 141.8 162.8 123.7 28.4 2.3 0.4c-0.2 4.9-1.3-5.4-0.1-0.8 0.8 2.9 0.7-0.9-0.9-1.9 0.4 0.8 0.8 1.5 1.3 2.2-2.2-2.7-2.8-3.4-1.6-2.2 2.5 2.8 1.2-0.6-1.3-0.7 0.1 0 5 2.4 0.7 0.7s0.8-0.1 1 0c-1.2-1.1-5.7-0.3-2.1-0.4H249c3.6 0.2-0.9-0.7-2.1 0.4 0.1-0.1 2.6-0.7 2.5-0.7-1 0.4-2.1 0.9-3.1 1.3 0.8-0.4 1.5-0.8 2.2-1.3-0.9 0.7-1.8 1.4-2.6 2l1.8-1.8c-2.4 0.7-2.7 4.3-1 1 1.4-2.7-1.8 5.7-0.6 1.3s0.1 5.1-0.1 0.8v-519.3c0-12 10.6-23.6 23-23 12.6 0.7 23.1 10.3 23.1 23.2z"  horiz-adv-x="1024" />

    
    <glyph glyph-name="zhuangtai" unicode="&#58889;" d="M512-128c-281.6 0-512 230.4-512 512s230.4 512 512 512 512-230.4 512-512-230.4-512-512-512zM512 825.6C268.8 825.6 70.4 627.2 70.4 384c0-243.2 198.4-441.6 441.6-441.6s441.6 198.4 441.6 441.6c0 243.2-198.4 441.6-441.6 441.6zM275.2 128h-6.4c-12.8 0-25.6 12.8-25.6 25.6V512c0 12.8 12.8 25.6 25.6 25.6h6.4c12.8 0 25.6-12.8 25.6-25.6v-358.4c0-19.2-12.8-25.6-25.6-25.6zM390.4 128H384c-12.8 0-25.6 12.8-25.6 25.6V377.6c0 12.8 12.8 25.6 25.6 25.6h6.4c12.8 0 25.6-12.8 25.6-25.6v-224c0-19.2-12.8-25.6-25.6-25.6zM505.6 128h-6.4c-12.8 0-25.6 12.8-25.6 25.6V422.4c0 12.8 12.8 25.6 25.6 25.6h6.4c12.8 0 25.6-12.8 25.6-25.6v-268.8c0-19.2-12.8-25.6-25.6-25.6zM620.8 128h-6.4c-12.8 0-25.6 12.8-25.6 25.6v448c0 12.8 12.8 25.6 25.6 25.6h6.4c12.8 0 25.6-12.8 25.6-25.6v-448c0-19.2-12.8-25.6-25.6-25.6zM748.8 128h-6.4c-12.8 0-25.6 12.8-25.6 25.6V492.8c0 12.8 12.8 25.6 25.6 25.6h6.4c12.8 0 25.6-12.8 25.6-25.6v-345.6c0-12.8-12.8-19.2-25.6-19.2z"  horiz-adv-x="1024" />

    
    <glyph glyph-name="dianya1" unicode="&#59263;" d="M434.56 768L215.168 384H416a32 32 0 0 0 26.624-49.728l-141.696-212.48L708.8 448H544a32 32 0 0 0-22.656 54.656L786.752 768H434.56z m-78.336-448H160a32 32 0 0 0-27.776 47.872l256 448A32 32 0 0 0 416 832h448a32 32 0 0 0 22.656-54.656L621.248 512H800a32 32 0 0 0 19.968-56.96l-640-512c-28.544-22.848-66.88 12.288-46.592 42.688L356.224 320z"  horiz-adv-x="1024" />

    
    <glyph glyph-name="icon-power-power" unicode="&#58881;" d="M479.62680889 516.40433778h107.75438222L551.35573333 301.22439111000006 766.86222222 570.12110222h-107.75324444L677.12113778 785.63555555 479.62680889 516.40433778zM984.32 161.39946667000004l-192.86129778-0.05461334-37.04035555 101.87548445a36.864 36.864 0 0 1-29.47640889 23.92291555 37.12455111 37.12455111 0 0 1-5.14844445 0.36181334c-11.75665778 0-22.90460445-5.63882667-29.81888-15.08010667L558.74446222 93.39676444999998 428.01493333 381.59246222c-5.26904889 11.61216-16.39992889 19.80302222-29.04405333 21.37656889a37.09724445 37.09724445 0 0 1-4.57614222 0.28444444c-11.28220445 0-21.78958222-5.06197333-28.82673778-13.88544l-122.38848-153.31555555H39.44448c-20.34915555 0-36.90268445-16.55466667-36.90268445-36.90382222s16.55466667-36.90382222 36.90268445-36.90382223h221.49461333c11.28789333 0 21.79982222 5.06083555 28.83811556 13.88202667l95.89873778 120.13112889L517.59559111 5.438577779999946c5.39420445-11.88977778 16.81408-20.11363555 29.81432889-21.46417778 1.26520889-0.12856889 2.54293333-0.19342222 3.79904-0.19342222 11.70659555 0 22.82951111 5.63996445 29.75516445 15.08579555l127.69052444 174.20401778 22.272-61.25112889c5.28611555-14.52942222 19.22389333-24.29041778 34.68970666-24.29041777l218.71616 0.06144c9.85770667 0.00341333 19.12490667 3.84455111 26.09379556 10.81685333 6.96888889 6.97116445 10.80433778 16.23836445 10.80092444 26.09493333-0.00341333 20.34460445-16.55808 36.89699555-36.90723555 36.89699556z"  horiz-adv-x="1024" />

    
    <glyph glyph-name="-" unicode="&#58960;" d="M517.973333 256l-148.053333-213.333333c-3.413333-3.413333 0-8.106667 4.693333-8.106667h298.666667a5.546667 5.546667 0 0 1 4.693333 8.106667l-148.053333 213.333333c-5.546667 2.56-8.533333 2.56-11.946667 0zM888.746667 699.733333H156.586667a25.173333 25.173333 0 0 1-26.026667-26.026666V170.666667a26.453333 26.453333 0 0 1 26.026667-26.026667H341.333333v58.88H189.44V640h668.586667v-436.48h-152.746667v-58.453333h185.6a26.453333 26.453333 0 0 1 26.026667 26.026666V673.706667a28.16 28.16 0 0 1-28.16 26.026666z"  horiz-adv-x="1024" />

    
    <glyph glyph-name="xunhuan" unicode="&#58897;" d="M696.277 119.205c-56.308-39.418-122.117-59.225-189.443-58.307-8.867 0.162-17.73 0.561-26.438 1.318-3.592 0.318-7.188 0.959-10.78 1.359-6.869 0.918-13.737 1.836-20.446 3.113-4.153 0.84-8.146 1.916-12.222 2.875-6.549 1.479-13.098 3.035-19.487 4.992-3.113 0.918-6.148 2.035-9.183 3.035-7.348 2.438-14.695 5.07-21.883 8.027-1.679 0.639-3.195 1.438-4.792 2.195-8.388 3.674-16.612 7.508-24.681 11.861-0.397 0.16-0.717 0.398-1.037 0.557a330.959 330.959 0 0 0-73.637 55.109c-0.32 0.318-0.639 0.762-1.04 1.158-6.709 6.791-13.176 13.818-19.328 21.285-1.278 1.516-2.474 3.154-3.833 4.793-44.165 55.387-70.84 125.391-70.84 201.624h85.056L136.093 588.46 0 384.202h84.978c0-89.651 28.033-172.672 75.472-241.28 0.561-0.998 0.958-1.957 1.598-2.875 4.952-7.027 10.382-13.535 15.654-20.166 1.917-2.475 3.833-5.111 5.75-7.545a464.754 464.754 0 0 1 24.599-26.996c0.799-0.801 1.52-1.637 2.318-2.436 28.511-28.475 60.617-52.516 95.599-71.721 1.041-0.479 1.917-1.08 2.875-1.561 10.063-5.391 20.446-10.301 30.91-14.975 2.634-1.158 5.271-2.354 7.905-3.514 8.945-3.674 18.21-6.945 27.474-10.063 4.395-1.557 8.786-3.035 13.258-4.391 8.068-2.396 16.375-4.436 24.759-6.391 5.513-1.318 11.104-2.715 16.772-3.754 2.318-0.521 4.554-1.238 6.869-1.598 7.909-1.438 15.813-2.195 23.722-3.154 2.875-0.361 5.591-0.84 8.466-1.158 14.216-1.398 28.433-2.277 42.567-2.277 86.498 0 170.915 26.479 243.356 77.191 23.083 16.215 28.592 48.002 12.541 71.164-16.215 23.122-48.085 28.714-71.165 12.503M936.357 384.161c0 89.291-27.794 172.152-74.993 240.599-0.639 1.237-1.122 2.355-1.917 3.433-5.832 8.425-12.222 16.174-18.61 24.042-0.721 0.996-1.438 1.954-2.236 2.875-43.128 52.43-97.438 92.883-158.857 119.398-1.757 0.721-3.354 1.557-5.111 2.277-9.821 3.993-19.885 7.585-29.948 10.94-3.674 1.241-7.27 2.556-10.943 3.596-8.785 2.715-17.73 4.87-26.753 6.988-4.952 1.118-9.985 2.355-15.016 3.354-2.478 0.479-4.873 1.237-7.27 1.716-6.709 1.118-13.495 1.638-20.204 2.519-4.714 0.598-9.265 1.315-13.897 1.794-11.423 1.081-22.604 1.479-33.785 1.638-2.076 0-3.993 0.319-6.07 0.319-0.397 0-0.717-0.078-1.118-0.078-86.416-0.082-170.595-26.159-243.032-76.873-23.083-16.092-28.674-48.001-12.459-71.082 16.051-23.12 47.998-28.752 71.082-12.5 55.825 39.094 121.078 58.901 187.924 58.303 9.584-0.078 19.009-0.557 28.354-1.479 2.953-0.319 5.75-0.717 8.626-1.036 7.667-1 15.334-2.036 22.76-3.514 3.354-0.639 6.631-1.557 9.903-2.318 7.348-1.598 14.777-3.433 21.966-5.55 2.236-0.717 4.472-1.557 6.786-2.277a407.695 407.695 0 0 0 24.202-8.904c0.798-0.36 1.675-0.758 2.396-1.077 47.601-20.446 89.451-51.995 121.958-91.449 0.238-0.238 0.397-0.557 0.558-0.799 45.922-55.784 73.559-127.185 73.559-204.856H749.07l136.175-204.3 136.175 204.3h-85.063z"  horiz-adv-x="1024" />

    
    <glyph glyph-name="kongzhicelve-daohang" unicode="&#58957;" d="M938.7 423c-11.6 0-19.4-7.8-19.4-19.4v-77.7c0-42.7-35-77.7-77.7-77.7H181.4c-42.7 0-77.7 35-77.7 77.7V714.3c0 42.7 35 77.7 77.7 77.7h660.2c42.7 0 77.7-35 77.7-77.7 0-11.7 7.8-19.4 19.4-19.4 11.6 0 19.4 7.8 19.4 19.4 0 64.1-52.4 116.5-116.5 116.5H181.4c-64.1 0-116.5-52.4-116.5-116.5v-388.4c0-64.1 52.4-116.5 116.5-116.5h660.2c64.1 0 116.5 52.4 116.5 116.5v77.7c0 11.6-7.8 19.4-19.4 19.4z m0 0M938.7 578.3c-11.6 0-19.4-7.8-19.4-19.4v-77.7c0-11.7 7.8-19.4 19.4-19.4 11.6 0 19.4 7.8 19.4 19.4v77.7c0 11.7-7.8 19.4-19.4 19.4z m-13.6 71.9c-3.9-3.9-5.8-7.8-5.8-13.6s1.9-9.7 5.8-13.6c3.9-3.9 7.8-5.8 13.6-5.8s9.7 1.9 13.6 5.8c0 1.9 1.9 1.9 1.9 3.9 0 0 1.9 1.9 1.9 3.9 0 1.9 0 1.9 1.9 3.9v3.9c0 5.8-1.9 9.7-5.8 13.6-7.7 5.7-19.4 5.7-27.1-2zM861-23.6H161.9c-11.6 0-19.4-7.8-19.4-19.4 0-11.6 7.8-19.4 19.4-19.4H861c11.6 0 19.4 7.8 19.4 19.4 0 11.6-7.8 19.4-19.4 19.4z m-58.3 718.4h-60.2c-7.8 33-38.8 58.3-75.7 58.3-36.9 0-66-25.2-75.7-58.3H220.2c-11.7 0-19.4-7.8-19.4-19.4 0-11.6 7.8-19.4 19.4-19.4h370.9c7.8-33 38.8-58.3 75.7-58.3 36.9 0 66 25.2 75.7 58.3h60.2c11.6 0 19.4 7.8 19.4 19.4 0.1 11.7-7.7 19.4-19.4 19.4z m-135.9-58.2c-21.4 0-38.8 17.5-38.8 38.8 0 21.4 17.5 38.8 38.8 38.8 21.4 0 38.8-17.5 38.8-38.8 0-21.3-17.4-38.8-38.8-38.8z m0-563.1c11.7 0 19.4 7.8 19.4 19.4 0 11.7-7.8 19.4-19.4 19.4H356.1c-11.6 0-19.4-7.8-19.4-19.4 0-11.6 7.8-19.4 19.4-19.4h310.7z m135.9 466H431.9c-7.8 33-38.8 58.3-75.7 58.3s-66-25.2-75.7-58.3h-60.2c-11.7 0-19.4-7.8-19.4-19.4 0-11.7 7.8-19.4 19.4-19.4h60.2c7.8-33 38.8-58.3 75.7-58.3s66 25.2 75.7 58.3h370.9c11.6 0 19.4 7.8 19.4 19.4 0 11.6-7.8 19.4-19.5 19.4z m-446.6-58.3c-21.4 0-38.8 17.5-38.8 38.8 0 21.4 17.5 38.8 38.8 38.8 21.4 0 38.8-17.5 38.8-38.8 0.1-21.3-17.4-38.8-38.8-38.8z m446.6-97.1h-60.2c-7.8 33-38.8 58.3-75.7 58.3-36.9 0-66-25.2-75.7-58.3H220.2c-11.7 0-19.4-7.8-19.4-19.4 0-11.6 7.8-19.4 19.4-19.4h370.9c7.8-33 38.8-58.3 75.7-58.3 36.9 0 66 25.2 75.7 58.3h60.2c11.6 0 19.4 7.8 19.4 19.4 0.1 11.7-7.7 19.4-19.4 19.4z m-135.9-58.2c-21.4 0-38.8 17.5-38.8 38.8 0 21.4 17.5 38.8 38.8 38.8 21.4 0 38.8-17.5 38.8-38.8 0-21.3-17.4-38.8-38.8-38.8z m0 0"  horiz-adv-x="1024" />

    
    <glyph glyph-name="jiaohuanji" unicode="&#58892;" d="M341.333 110.93299999999999c31.8578 0 56.8889 25.0311 56.8889 56.8889s-25.0311 56.8889-56.8889 56.8889-56.8889-25.0311-56.8889-56.8889 25.0311-56.8889 56.8889-56.8889Zm0 91.0222c18.2044 0 34.1333-15.9289 34.1333-34.1333s-15.9289-34.1333-34.1333-34.1333-34.1333 15.9289-34.1333 34.1333 15.9289 34.1333 34.1333 34.1333ZM432.356 304.356h-182.044c-13.6533 0-22.7556-11.3778-22.7556-22.7556l9.10222-204.8c0-11.3778 11.3778-22.7556 22.7556-22.7556H432.356c13.6533 0 22.7556 9.10222 22.7556 22.7556v204.8c0 13.6533-9.10222 22.7556-22.7556 22.7556Zm0-227.556h-172.942l-9.10222 204.8h182.044v-204.8ZM2309.69 327.111H568.889c-6.82667 0-11.3778-2.27556-15.9289-6.82667-4.55111-4.55111-6.82667-9.10222-6.82667-15.9289l2.27556-273.067c0-11.3778 11.3778-22.7556 22.7556-22.7556h1738.52c13.6533 0 22.7556 9.10222 22.7556 22.7556V304.356c0 13.6533-9.10222 22.7556-22.7556 22.7556Zm0-295.822H571.164L568.889 304.356h1740.8v-273.067ZM1620.2 99.55600000000004h43.2356v22.7556H1706.67v106.951h-129.707V122.31100000000003h43.2356ZM1567.86 81.351h13.6533c4.55111-11.3778 15.9289-20.48 29.5822-20.48h63.7156c13.6533 0 25.0311 9.10222 29.5822 20.48h13.6533c15.9289 0 31.8578 13.6533 31.8578 31.8578v127.431c0 15.9289-13.6533 31.8578-31.8578 31.8578h-150.187c-15.9289 0-31.8578-13.6533-31.8578-31.8578v-127.431c0-18.2044 13.6533-31.8578 31.8578-31.8578Zm-11.3778 157.013c0 4.55111 4.55111 11.3778 11.3778 11.3778h150.187c4.55111 0 11.3778-4.55111 11.3778-11.3778v-127.431c0-4.55111-4.55111-11.3778-11.3778-11.3778H1683.91v-11.3778c0-4.55111-4.55111-11.3778-11.3778-11.3778h-63.7156c-4.55111 0-11.3778 4.55111-11.3778 11.3778V99.55600000000004h-31.8578c-4.55111 0-11.3778 4.55111-11.3778 11.3778v127.431ZM2075.31 99.55600000000004h43.2356v22.7556H2161.78v106.951h-129.707V122.31100000000003h43.2356ZM2022.97 81.351h13.6533c4.55111-11.3778 15.9289-20.48 29.5822-20.48h63.7156c13.6533 0 25.0311 9.10222 29.5822 20.48h13.6533c15.9289 0 31.8578 13.6533 31.8578 31.8578v127.431c0 15.9289-13.6533 31.8578-31.8578 31.8578h-150.187c-15.9289 0-31.8578-13.6533-31.8578-31.8578v-127.431c0-18.2044 13.6533-31.8578 31.8578-31.8578Zm-11.3778 157.013c0 4.55111 4.55111 11.3778 11.3778 11.3778h150.187c4.55111 0 11.3778-4.55111 11.3778-11.3778v-127.431c0-4.55111-4.55111-11.3778-11.3778-11.3778H2139.02v-11.3778c0-4.55111-4.55111-11.3778-11.3778-11.3778h-63.7156c-4.55111 0-11.3778 4.55111-11.3778 11.3778V99.55600000000004h-31.8578c-4.55111 0-11.3778 4.55111-11.3778 11.3778v127.431ZM1187.84 99.55600000000004h43.2356v22.7556H1274.31v106.951h-129.707V122.31100000000003h43.2356ZM1135.5 81.351h13.6533c4.55111-11.3778 15.9289-20.48 29.5822-20.48h63.7156c13.6533 0 25.0311 9.10222 29.5822 20.48h13.6533c15.9289 0 31.8578 13.6533 31.8578 31.8578v127.431c0 15.9289-13.6533 31.8578-31.8578 31.8578h-150.187c-15.9289 0-31.8578-13.6533-31.8578-31.8578v-127.431c0-18.2044 13.6533-31.8578 31.8578-31.8578Zm-11.3778 157.013c0 4.55111 4.55111 11.3778 11.3778 11.3778h150.187c4.55111 0 11.3778-4.55111 11.3778-11.3778v-127.431c0-4.55111-4.55111-11.3778-11.3778-11.3778H1251.56v-11.3778c0-4.55111-4.55111-11.3778-11.3778-11.3778h-63.7156c-4.55111 0-11.3778 4.55111-11.3778 11.3778V99.55600000000004h-31.8578c-4.55111 0-11.3778 4.55111-11.3778 11.3778v127.431ZM680.391 81.351h13.6533c4.55111-11.3778 15.9289-20.48 29.5822-20.48h63.7156c13.6533 0 25.0311 9.10222 29.5822 20.48h13.6533c15.9289 0 31.8578 13.6533 31.8578 31.8578v127.431c0 15.9289-13.6533 31.8578-31.8578 31.8578h-150.187c-15.9289 0-31.8578-13.6533-31.8578-31.8578v-127.431c0-18.2044 13.6533-31.8578 31.8578-31.8578Zm-11.3778 157.013c0 4.55111 4.55111 11.3778 11.3778 11.3778h150.187c4.55111 0 11.3778-4.55111 11.3778-11.3778v-127.431c0-4.55111-4.55111-11.3778-11.3778-11.3778H796.444v-11.3778c0-4.55111-4.55111-11.3778-11.3778-11.3778h-63.7156c-4.55111 0-11.3778 4.55111-11.3778 11.3778V99.55600000000004h-31.8578c-4.55111 0-11.3778 4.55111-11.3778 11.3778v127.431ZM732.729 99.55600000000004h43.2356v22.7556H819.2v106.951h-129.707V122.31100000000003h43.2356ZM2566.83 500.053c-2.27556 2.27556-4.55111 6.82667-4.55111 9.10222l-250.311 341.333c-11.3778 13.6533-27.3067 22.7556-45.5111 22.7556H345.884c-18.2044 0-34.1333-9.10222-45.5111-22.7556L34.1333 509.156c-4.55111-4.55111-6.82667-11.3778-9.10222-15.9289-6.82667-9.10222-9.10222-20.48-9.10222-34.1333l18.2044-525.653c0-29.5822 27.3067-54.6133 56.8889-54.6133h2423.47c31.8578 0 56.8889 25.0311 56.8889 56.8889 6.82667 350.436 9.10222 527.929 9.10222 527.929 0 13.6533-4.55111 25.0311-13.6533 36.4089ZM350.436 807.2533h1906.92l229.831-311.751H109.227L350.436 807.2533ZM102.4-52.90700000000004l-15.9289 477.867h2425.74l-9.10222-477.867H102.4Z"  horiz-adv-x="2594" />

    
    <glyph glyph-name="shi" unicode="&#58893;" d="M702.935843 492.855216c-4.86902 0-9.798275 1.646431-13.793882 5.079843a315.211294 315.211294 0 0 1-93.756236 54.763921 316.606745 316.606745 0 0 1-110.97349 19.857569c-38.048627 0-75.324235-6.645961-110.592-19.71702a315.542588 315.542588 0 0 1-93.535372-54.412549 21.443765 21.443765 0 1 0-27.557647 32.858353 360.006275 360.006275 0 0 0 106.174745 61.83153 360.337569 360.337569 0 0 0 125.510274 22.417568c43.359373 0 85.694745-7.569569 125.901804-22.558117a357.777569 357.777569 0 0 0 106.455843-62.192941 21.423686 21.423686 0 0 0 2.56-30.208 21.293176 21.293176 0 0 0-16.394039-7.720157z m-82.060549-100.020706c-4.98949 0-9.98902 1.686588-13.994667 5.200314a187.161098 187.161098 0 0 1-122.468392 45.568 187.050667 187.050667 0 0 1-121.876078-45.076079 21.393569 21.393569 0 0 0-30.197961 2.29898 21.383529 21.383529 0 0 0 2.278902 30.21804 229.998431 229.998431 0 0 0 149.795137 55.326117 229.707294 229.707294 0 0 0 150.528-55.978666 21.393569 21.393569 0 0 0-14.064941-37.556706zM484.412235 159.914667c-54.743843 0-99.317961 44.333176-99.31796 98.826039 0 54.472784 44.564078 98.826039 99.31796 98.826039 54.773961 0 99.338039-44.353255 99.33804-98.826039-0.010039-54.492863-44.564078-98.826039-99.33804-98.826039z m0 154.724392c-31.131608 0-56.470588-25.057882-56.470588-55.978667s25.33898-55.978667 56.470588-55.978667c31.141647 0 56.490667 25.057882 56.490667 55.978667s-25.34902 55.978667-56.490667 55.978667z m0 0M782.858039 594.68298c-4.798745 0-9.637647 1.566118-13.653333 4.919216a445.078588 445.078588 0 0 1-130.720628 74.912628 447.849412 447.849412 0 0 1-154.10196 27.12596c-52.826353 0-104.528314-9.065412-153.660236-26.925176a445.209098 445.209098 0 0 1-130.509804-74.470902 21.413647 21.413647 0 0 0-27.216313 33.059137A489.241098 489.241098 0 0 0 484.321882 744.478118c58.036706 0 114.81851-9.999059 168.799373-29.70604a489.512157 489.512157 0 0 0 143.299765-82.04047 21.413647 21.413647 0 0 0 2.931451-30.137726 21.052235 21.052235 0 0 0-16.494432-7.910902z m0 0"  horiz-adv-x="1024" />

    
    <glyph glyph-name="wuxianWIFI" unicode="&#58894;" d="M348.56 259.12h-85.48V519.87a42.74 42.74 0 0 0 85.48 0z m-57.9 27.57H321V519.88a15.17 15.17 0 0 1-30.33 0zM934.47 13H89.53a25.63 25.63 0 0 0-25.6 25.61V261.09a25.63 25.63 0 0 0 25.6 25.6h844.94a25.63 25.63 0 0 0 25.6-25.6v-222.43a25.63 25.63 0 0 0-25.6-25.66z m-843 27.58h841V259.12H91.5zM482.45 82.62h-40.12a25.63 25.63 0 0 0-25.6 25.61v83.29a25.63 25.63 0 0 0 25.6 25.6h40.12a25.64 25.64 0 0 0 25.61-25.6v-83.29a25.64 25.64 0 0 0-25.61-25.61z m-38.15 27.57h36.18v79.36H444.3zM608.23 82.62h-40.12a25.63 25.63 0 0 0-25.6 25.61v83.29a25.63 25.63 0 0 0 25.6 25.6h40.12a25.64 25.64 0 0 0 25.61-25.6v-83.29a25.64 25.64 0 0 0-25.61-25.61z m-38.15 27.57h36.18v79.36h-36.18zM734 82.62h-40.11a25.63 25.63 0 0 0-25.6 25.61v83.29a25.63 25.63 0 0 0 25.6 25.6H734a25.64 25.64 0 0 0 25.61-25.6v-83.29A25.64 25.64 0 0 0 734 82.62z m-38.15 27.57H732v79.36h-36.14zM859.79 82.62h-40.12a25.63 25.63 0 0 0-25.6 25.61v83.29a25.63 25.63 0 0 0 25.6 25.6h40.12a25.64 25.64 0 0 0 25.61-25.6v-83.29a25.64 25.64 0 0 0-25.61-25.61z m-38.15 27.57h36.18v79.36h-36.18zM221.56 576.32a13.48 13.48 0 0 0-9 23.51c24.93 22.4 57.95 34.74 93 34.74s68-12.33 93-34.73a13.48 13.48 0 1 0-18-20.06c-20 18-46.63 27.84-75 27.84s-55-9.89-75-27.84a13.38 13.38 0 0 0-9-3.46zM159.84 612.62a13.47 13.47 0 0 0-9 23.49c41.35 37.22 96.3 57.72 154.72 57.72s113.37-20.5 154.75-57.71a13.48 13.48 0 1 0-18-20c-36.42 32.76-85 50.8-136.72 50.8s-100.29-18-136.69-50.8a13.41 13.41 0 0 0-9.06-3.5zM113.57 656.33a13.47 13.47 0 0 0-9 23.49c53.78 48.45 125.16 75.13 201 75.13s147.2-26.68 201-75.12a13.47 13.47 0 0 0-18-20c-48.84 44-113.82 68.2-183 68.2s-134.13-24.22-183-68.2a13.42 13.42 0 0 0-9-3.5z"  horiz-adv-x="1024" />

    
    <glyph glyph-name="guangfu" unicode="&#58886;" d="M1060.927489 177.08203H193.107416c-51.185098 0-79.104243 32.572335-69.797861 83.757434 13.959572 88.410624 30.24574 174.494653 46.531907 260.578681 11.632977 76.777647 25.592549 151.228699 39.552121 228.006347 6.979786 44.205312 32.572335 67.471266 76.777648 67.471265h679.365848c46.531907 0 69.797861-20.939358 79.104242-67.471265 23.265954-127.962745 46.531907-258.252086 69.797862-386.214832 6.979786-32.572335 11.632977-67.471266 16.286167-102.370196 6.979786-51.185098-20.939358-83.757433-69.797861-83.757434m165.188271 86.084029c-34.898931 165.188271-69.797861 328.049947-102.370196 493.238219-16.286168 76.777647-81.430838 130.289341-158.208485 130.289341H293.151017C214.046774 886.693619 148.902104 833.181925 132.615936 751.751087c-23.265954-107.023387-44.205312-211.720179-67.471266-318.743566-13.959572-65.14467-30.24574-132.615936-39.552121-197.760606-13.959572-109.349982 51.185098-183.801034 158.208485-183.801035h372.25526l-30.24574-83.757433h-214.046774c-16.286168 0-32.572335-9.306381-41.878717-23.265954-9.306381-16.286168-9.306381-34.898931 0-48.858502s25.592549-25.592549 41.878717-23.265954h630.507345c25.592549 0 46.531907 23.265954 46.531908 48.858503s-20.939358 48.858503-46.531908 48.858502h-214.046774L697.978611 53.772476h376.90845c74.451052 0 123.309555 34.898931 146.575509 102.370196 11.632977 34.898931 11.632977 69.797861 4.65319 107.023387M704.958397 560.970267h255.925491c32.572335 0 48.858503 18.612763 46.531908 51.185098-4.653191 41.878717-11.632977 81.430838-18.612763 123.309554-4.653191 30.24574-23.265954 46.531907-51.185099 46.531908H693.32542c-30.24574 0-46.531907-18.612763-46.531907-48.858503 0-39.552121 2.326595-76.777647 2.326595-116.329768 2.326595-37.225526 20.939358-55.838289 55.838289-55.838289m-421.113762-4.653191H535.116935c41.878717 0 60.49148 18.612763 62.818075 62.818075V726.158538c0 34.898931-16.286168 53.511694-51.185098 53.511693H311.76378c-32.572335 0-53.511694-18.612763-58.164885-53.511693-4.653191-37.225526-11.632977-74.451052-16.286167-111.676578-4.653191-34.898931 13.959572-58.164884 46.531907-58.164884m269.885063-46.531908H276.864849c-23.265954 0-48.858503-20.939358-53.511693-44.205312-9.306381-58.164884-18.612763-118.656364-25.592549-176.821248-4.653191-32.572335 16.286168-53.511694 48.858502-53.511693h300.130803c27.919144 0 53.511694 20.939358 53.511694 48.858502 2.326595 58.164884 2.326595 118.656364 2.326595 176.821249-2.326595 27.919144-23.265954 48.858503-48.858503 48.858502M1037.661535 453.94688c-4.653191 39.552121-30.24574 65.14467-74.451052 62.818075-81.430838-2.326595-162.861676 0-244.292513 0-44.205312 0-65.14467-20.939358-65.144671-67.471266s2.326595-93.063815 2.326596-139.595722c0-44.205312 23.265954-67.471266 67.471265-67.471266H1005.0892c34.898931 0 58.164884 25.592549 53.511694 60.491479-4.653191 48.858503-13.959572 100.043601-20.939359 151.2287"  horiz-adv-x="1233" />

    
    <glyph glyph-name="index" unicode="&#58887;" d="M569.8048 874.7264a82.0736 82.0736 0 0 1-110.2848 0L13.568 451.2768a41.1392 41.1392 0 0 1 55.0912-61.1072l7.0912 6.7328V-45.05600000000004a82.2784 82.2784 0 0 1 82.2784-82.3808h239.4368v247.7056a57.9328 57.9328 0 0 0 57.9584 58.0096h112.6656a57.9328 57.9328 0 0 0 57.9584-58.0096v-247.7056h245.12a82.2784 82.2784 0 0 1 82.304 82.3808V391.5008c18.2784-16.5376 44.2112-15.2832 59.4176 1.664a41.1392 41.1392 0 0 1-2.9696 58.112L569.8048 874.7008z"  horiz-adv-x="1024" />

    
    <glyph glyph-name="yougonggongshuai" unicode="&#58943;" d="M920.7 804.9H104.3V805c-18.2 0-32.9-14.7-32.9-32.9v-776.9c0-18.2 14.7-33 32.9-33h816.4c18.2 0 32.9 14.8 32.9 33V772c0 18.2-14.7 32.9-32.9 32.9zM255 716c3.2 17.1 17.2 31 34.2 34.2 30.7 5.8 57.1-20.6 51.3-51.3-3.2-17.1-17.2-31-34.2-34.2-30.7-5.8-57.1 20.6-51.3 51.3z m-116.1 0.1c3.2 17 17.1 30.9 34.2 34.2 30.7 5.8 57.1-20.6 51.3-51.3-3.2-17.1-17.2-31-34.2-34.2-30.7-5.8-57.1 20.6-51.3 51.3z m750-102v-279.5h-53.1c-2.2 0-31.7 1.2-45.2-2.8-9.7-3-16.6-8.8-20.9-17.7-3.6-8.4-6.2-13.9-7.8-16.6-1.1-1.4-1.8-2.5-2.4-3l-28.3 77c0 1.6 0.2 3.4 0.8 5.5 1.1 4.2 1.6 9.1 1.6 14.9 0 6.8-3 13.4-9 20-6.1 6.6-15.1 8.2-27.2 5.1-6.2-1.7-11.3-4.5-14.9-8.7-3.6-4.2-6.8-10.5-9.4-18.9-1.1-2-2.7-6.8-4.8-14.1s-4.9-16.4-8.3-27.1-7.1-22.5-11-35.3c-3.9-12.8-7.8-25.8-11.4-38.9-9.5-30.8-20-65.1-31.5-102.9-8.9 74.4-16.8 141.8-23.6 202-3.1 25.7-6.1 51-9 75.8-3 24.9-4 47.8-8.3 68-6.7 31.1-8.6 76.7-51.1 76.7-29.3 0-59.1-107.7-55.8-98.3-5.8-16.5-11.5-33.4-17.3-50.7-13.6-40.4-29.3-85.4-47.2-135.2l-34.6 95.1c-4.2 9.5-10.5 15.7-18.9 18.5-8.5 2.9-17.9-2.2-28.4-15.3-5.2-6.3-10.9-13.1-16.9-20.1s-11.9-14-17.7-20.8c-5.9-6.9-11.4-12.9-16.6-18.1l-12.6-12.6c-6.8-5.7-13.8-9.7-20.8-11.8-7.1-2.1-16.4-3.1-27.9-3.1h-63.3V614.1h752.8zM136.1 260c19.6 0.1 46.2 0.4 53.1 0.8 9 0 17.7 0 26.4 0.3 8.6 0.4 15.6 0.2 20.8-0.3 10-1 18.7 0.3 26 3.9 7.3 3.7 15.2 10.6 23.6 20.5 4.2 4.7 8.4 9.6 12.6 14.5 4.2 5.1 8.2 9.6 11.8 13.8 4.2 4.8 8.1 9.4 11.8 14.2 6.3-17.8 12.3-34 18.1-48.7 4.7-12.5 9.2-24.8 13.4-36.9 4.2-12 7.1-20.1 8.7-24.3 2.6-8.4 6.2-15.8 11-22.4 4.6-6.7 11.8-9.9 21.2-9.9 9.4-0.5 16.3 2.1 20.8 7.9s8 12 10.7 18.8l4.8 14.2c2.6 7.9 5.9 17.6 9.8 29.1 4 11.5 8.5 24.3 13.4 38.5 5 14.2 9.9 28.6 14.6 43.3 11.5 34.1 24.6 72.5 39.3 115.5 7.9-77 14.7-146.7 20.5-209 2.6-26.8 5-52.9 7.4-78.6 2.4-25.6 4.6-49 6.7-69.9 1.2-12.4 4-37.9 12.8-58.7H136.1V260z m492.8-223.4c7.5 18.3 13.3 43.3 22.3 72 4.8 15.3 9.5 30.7 14.2 46.4 11 36.7 23.3 76.7 37 120.2 4.7-12.6 9.4-24.4 14.2-35.3 3.6-9.4 7.3-18.8 10.9-27.9 3.6-9.2 6.3-15.6 7.8-19.2 1.6-3.7 4.5-6.8 9-9.5 4.5-2.6 9.3-3.9 14.2-4.2 5-0.2 9.9 0.6 14.6 2.8 4.8 2 8.2 6.2 10.3 12.5 4.2 12.5 8.9 24.9 14.2 36.9 5.1 12.1 8.8 20.2 10.9 24.4 2.6 4.2 7 8.5 13.3 13 6.3 4.4 13.2 6.4 20.5 5.9 0 0 22.7 0.5 46.6 0.7v-238.7h-260z"  horiz-adv-x="1024" />

    
    <glyph glyph-name="cz-jl" unicode="&#59250;" d="M879.5 576v-462.3l-32-53.3-32 53.3V576h64m64 64h-192v-544l96-160 96 160V640zM943.5 832h-192v-128h192V832zM655.5 609h-543c-17.7 0-32 14.3-32 32s14.3 32 32 32h543c17.7 0 32-14.3 32-32s-14.3-32-32-32zM534.8 352H112.5c-17.7 0-32 14.3-32 32s14.3 32 32 32h422.3c17.7 0 32-14.3 32-32s-14.3-32-32-32zM474.5 97h-362c-17.7 0-32 14.3-32 32s14.3 32 32 32h362c17.7 0 32-14.3 32-32s-14.3-32-32-32z"  horiz-adv-x="1024" />

    
    <glyph glyph-name="pinshuai" unicode="&#58882;" d="M947.8144 376.756224c0-19.910656 16.140288-36.046848 36.046848-36.046848 19.904512 0 36.0448 16.136192 36.0448 36.046848 0 19.904512-16.140288 36.042752-36.0448 36.042752-19.90656 0-36.046848-16.13824-36.046848-36.042752zM485.95968 77.062144a30.048256 30.048256 0 0 0-29.2864 23.289856l-97.050624 421.924864-76.957696-286.138368c-4.360192-16.033792-20.893696-25.495552-36.927488-21.13536a30.08512 30.08512 0 0 0-20.373504 18.735104l-42.983424 119.216128H34.205696c-16.594944-0.01024-30.056448 13.436928-30.066688 30.031872-0.01024 16.594944 13.43488 30.056448 30.031872 30.066688h169.322496a30.07488 30.07488 0 0 0 28.268544-19.873792l17.696768-49.09056 83.388416 310.155264c-3.612672 16.177152 6.57408 32.221184 22.751232 35.833856 16.175104 3.612672 32.219136-6.572032 35.831808-22.749184 1.04448-4.677632 0.954368-9.535488-0.264192-14.17216l99.414016-432.207872 98.72384 310.884352a30.521344 30.521344 0 0 0 29.538304 20.965376 30.007296 30.007296 0 0 0 28.23168-22.673408l31.213568-123.357184h146.827264c16.596992 0.817152 30.711808-11.974656 31.52896-28.571648 0.817152-16.596992-11.976704-30.711808-28.5696-31.52896a29.67552 29.67552 0 0 0-2.957312 0h-170.22976a30.089216 30.089216 0 0 0-29.140992 22.67136l-11.07968 43.821056-100.104192-315.20768a29.956096 29.956096 0 0 0-28.602368-20.8896z"  horiz-adv-x="1024" />

    
    <glyph glyph-name="dian_blue" unicode="&#59320;" d="M154.582339 384a11.293 11.242 90 1 1 719.443035 0 11.293 11.242 90 1 1-719.443035 0ZM514.303856 896C232.817449 896 4.607712 666.766327 4.607712 384s228.209737-512 509.696144-512 509.696144 229.233673 509.696144 512S795.790263 896 514.303856 896zM514.303856-90.97831399999995c-261.135679 0-472.834448 212.658709-472.834448 474.978314 0 262.319605 211.698769 474.978314 472.834448 474.978314S987.138304 646.319605 987.138304 384C987.138304 121.68039499999998 775.439535-90.97831399999995 514.303856-90.97831399999995z"  horiz-adv-x="1024" />

    
    <glyph glyph-name="chunengxitong" unicode="&#58910;" d="M1295.733912-127.62979H0V762.354302h194.360087V894.889371h278.582791v-132.535069h349.848156V894.889371h278.582791v-132.535069H1295.733912v-890.26175zM77.744035-52.107014h1146.724512v745.047H1036.587129V825.475054H894.056399v-132.535068H408.156182V825.475054H265.625452v-132.535068H77.744035v-745.047z m155.488069 391.404194h291.54013v-88.387563H233.139552v88.387563z m537.729574 0h116.616052V453.229212h90.701373v-113.654375h116.616052v-88.387563h-116.616052v-113.654375h-90.701373V251.187274H770.961678v88.387563z"  horiz-adv-x="1295" />

    
    <glyph glyph-name="shuijinchuanganqiicon" unicode="&#58911;" d="M409.6 440.32c0-56.55552 45.84448-102.4 102.4-102.4s102.4 45.84448 102.4 102.4c0 34.89792-33.8944 98.57536-102.4 185.84576C443.4944 538.89536 409.6 475.21792 409.6 440.32z m102.4-143.36c-79.17568 0-143.36 64.18432-143.36 143.36 0 52.7872 47.78496 136.41216 143.36 250.88 95.57504-114.46784 143.36-198.0928 143.36-250.88 0-79.17568-64.18432-143.36-143.36-143.36zM440.32 179.2c-24.38144 0-51.51744 8.71936-81.69984 25.66144l-0.73216 0.43008C336.04608 218.76736 315.78112 225.28 296.96 225.28s-39.08608-6.51264-60.928-19.98848a20.48 20.48 0 1 0-21.504 34.85696C242.47296 257.39264 269.99808 266.24 296.96 266.24c26.83904 0 54.24128-8.76544 82.05824-25.856C403.42528 226.72896 423.95648 220.16 440.32 220.16c16.44544 0 37.0944 6.64064 61.66016 20.41856l0.91136 0.4864c33.536 16.64 60.07296 25.17504 80.78848 25.17504 20.71552 0 47.2576-8.52992 81.01888-25.2928 27.3408-14.01344 48.41984-20.7872 62.34112-20.7872 13.9264 0 35.00032 6.77376 62.34112 20.7872a20.48 20.48 0 1 0 18.67776-36.4544C775.45984 187.78624 748.7488 179.2 727.04 179.2s-48.41984 8.58624-80.78848 25.17504C617.90208 218.45504 596.65408 225.28 583.68 225.28c-12.9024 0-33.9968-6.7584-62.12096-20.6848C491.55584 187.83744 464.57344 179.2 440.32 179.2zM440.32 81.92c-24.38144 0-51.51744 8.71936-81.69984 25.66144l-0.73216 0.43008C336.04608 121.48736 315.78112 128 296.96 128s-39.08608-6.51264-60.928-19.98848a20.48 20.48 0 1 0-21.504 34.85696C242.47296 160.11264 269.99808 168.96 296.96 168.96c26.83904 0 54.24128-8.76544 82.05824-25.856C403.42528 129.44896 423.95648 122.88 440.32 122.88c16.44544 0 37.0944 6.64064 61.66016 20.41856l0.91136 0.4864c33.536 16.64 60.07296 25.17504 80.78848 25.17504 20.71552 0 47.2576-8.52992 81.01888-25.2928 27.3408-14.01344 48.41984-20.7872 62.34112-20.7872 13.9264 0 35.00032 6.77376 62.34112 20.7872a20.48 20.48 0 1 0 18.67776-36.4544C775.45984 90.50624 748.7488 81.92 727.04 81.92s-48.41984 8.58624-80.78848 25.17504C617.90208 121.17504 596.65408 128 583.68 128c-12.9024 0-33.9968-6.7584-62.12096-20.6848C491.55584 90.55744 464.57344 81.92 440.32 81.92zM583.68 61.44m-40.96 0a40.96 40.96 0 1 1 81.92 0 40.96 40.96 0 1 1-81.92 0ZM76.8-5.12m30.72 0l808.96 0q30.72 0 30.72-30.72l0 0q0-30.72-30.72-30.72l-808.96 0q-30.72 0-30.72 30.72l0 0q0 30.72 30.72 30.72ZM844.8-15.36H179.2V450.56c0 183.80288 148.99712 332.8 332.8 332.8s332.8-148.99712 332.8-332.8v-465.92z m51.2-51.2V450.56c0 212.07552-171.92448 384-384 384S128 662.63552 128 450.56v-517.12h768z"  horiz-adv-x="1024" />

    
    <glyph glyph-name="shuju" unicode="&#58891;" d="M512.042535 807.699692c16.856615 0 29.459692-3.308308 35.209847-6.222769l339.968-170.062769-339.968-169.905231c-5.750154-2.914462-18.353231-6.222769-35.209847-6.222769s-29.459692 3.308308-35.209846 6.222769L136.78592 631.492923 476.832689 801.4769229999999c5.750154 2.914462 18.353231 6.222769 35.209846 6.222769m0 78.769231c-25.521231 0-51.042462-4.804923-70.419692-14.493538L31.077612 666.702769c-38.754462-19.377231-38.754462-51.042462 0-70.419692l410.466462-205.272615c19.456-9.688615 44.977231-14.493538 70.498461-14.493539s51.042462 4.804923 70.419693 14.493539l410.466461 205.272615c38.754462 19.377231 38.754462 51.042462 0 70.419692L582.462228 871.975385C563.084997 881.664 537.563766 886.468923 512.042535 886.468923zM512.042535 125.71569199999999c-31.507692 0-62.936615 6.301538-88.064 18.825846L21.782843 345.560615a39.384615 39.384615 0 1 0 35.288615 70.498462l402.116924-201.097846c27.726769-13.863385 77.981538-13.863385 105.708307 0l402.116923 201.097846a39.384615 39.384615 0 0 0 35.209846-70.498462L600.106535 144.54153799999995a201.412923 201.412923 0 0 0-88.064-18.825846zM512.042535-118.46892300000002c-31.507692 0-62.936615 6.301538-88.064 18.825846L21.861612 101.45476900000006c-19.534769 9.688615-27.411692 33.319385-17.644307 52.775385s33.319385 27.254154 52.854153 17.644308l402.116924-201.097847c27.726769-13.863385 77.981538-13.863385 105.708307 0l402.116923 201.097847a39.384615 39.384615 0 1 0 35.209846-70.498462L600.106535-99.64307699999995c-25.127385-12.603077-56.556308-18.825846-88.064-18.825846z"  horiz-adv-x="1024" />

    
    <glyph glyph-name="bianhao" unicode="&#59248;" d="M921.088 793.6c-84.992 84.992-383.488-2.048-383.488-2.048l-3.072-3.072-464.896-464.896c-7.168-7.168-7.168-19.456 0-26.624l354.304-354.304c7.168-7.168 19.456-7.168 26.624 0l464.896 464.896 3.072 3.072c0-0.512 87.04 298.496 2.56 382.976z m-118.784-280.576c-45.056-45.056-117.76-45.056-162.304 0-45.056 45.056-45.056 117.76 0 162.304 45.056 45.056 117.76 45.056 162.304 0 45.056-44.544 45.056-117.248 0-162.304z"  horiz-adv-x="1024" />

    
    <glyph glyph-name="temperate" unicode="&#58880;" d="M548.5020752-28.564086920000022c-91.95556641 0-166.69006348 74.81689453-166.69006348 166.69006349 0 54.21752931 26.03759767 104.397583 70.12023926 135.70861815l-1e-8 407.94982911c0 52.07519532 42.35229492 94.42749023 94.42749024 94.42749023l4.28466796 0c52.07519532 0 94.42749023-42.35229492 94.42749024-94.42749023l0-407.94982911c44.08264161-31.31103516 70.12023926-81.49108887 70.12023925-135.70861815C715.19213866 46.25280757999997 640.37524414-28.564086920000022 548.5020752-28.564086920000022zM546.35974122 748.60876465c-36.83166503 0-66.74194336-29.99267578-66.74194337-66.74194337l0-422.78137206-6.34460448-4.11987305c-39.96276857-25.79040527-63.77563477-69.46105958-63.77563478-116.8395996 0-76.71203614 62.37487793-139.08691407 139.08691409-139.08691407s139.08691407 62.37487793 139.08691404 139.08691407c0 47.37854005-23.81286622 90.96679686-63.77563477 116.8395996l-6.34460449 4.11987305 1e-8 422.78137207c0 36.83166503-29.99267578 66.74194336-66.74194337 66.74194335L546.35974122 748.60876465zM548.5020752 133.26452636m-80.66711426 1e-8a80.66711426 80.66711426 0 1 1 161.33422851 0 80.66711426 80.66711426 0 1 1-161.33422851 0ZM578.4123535 199.51208496000004c0-16.56188963-13.43078614-29.91027833-29.91027831-29.91027831l1e-8 0c-16.56188963 0-29.91027833 13.43078614-29.91027833 29.91027832l0 322.99804686c0 16.56188963 13.43078614 29.91027833 29.91027833 29.91027832l-1e-8 0c16.56188963 0 29.91027833-13.43078614 29.91027831-29.91027832L578.4123535 199.51208496000004zM395.65478516 663.0802002l-77.78320313-1e-8c-5.10864258 0-9.22851563 4.11987305-9.22851562 9.22851563 0 5.10864258 4.11987305 9.22851563 9.22851562 9.22851561l77.78320313 0c5.10864258 0 9.22851563-4.11987305 9.2285156-9.22851561C404.80090332 667.2000732500001 400.68103027 663.0802002 395.65478516 663.0802002zM395.65478516 600.87011719l-52.40478516 0c-5.10864258 0-9.22851563 4.11987305-9.22851563 9.22851562 0 5.10864258 4.11987305 9.22851563 9.22851563 9.22851563l52.40478516 0c5.10864258 0 9.22851563-4.11987305 9.2285156-9.22851563C404.80090332 604.98999025 400.68103027 600.87011719 395.65478516 600.87011719zM395.65478516 538.74243164l-77.78320313 0c-5.10864258 0-9.22851563 4.11987305-9.22851562 9.22851563s4.11987305 9.22851563 9.22851562 9.22851562l77.78320313 0c5.10864258 0 9.22851563-4.11987305 9.2285156-9.22851562S400.68103027 538.74243164 395.65478516 538.74243164zM395.65478516 476.53234863l-52.40478516 0c-5.10864258 0-9.22851563 4.11987305-9.22851563 9.22851562 0 5.10864258 4.11987305 9.22851563 9.22851563 9.22851562l52.40478516 0c5.10864258 0 9.22851563-4.11987305 9.2285156-9.22851562C404.80090332 480.65222169 400.68103027 476.53234863 395.65478516 476.53234863zM395.65478516 414.32226563l-77.78320313-1e-8c-5.10864258 0-9.22851563 4.11987305-9.22851562 9.22851563s4.11987305 9.22851563 9.22851562 9.22851562l77.78320313 0c5.10864258 0 9.22851563-4.11987305 9.2285156-9.22851562S400.68103027 414.32226563 395.65478516 414.32226563z"  horiz-adv-x="1024" />

    
    <glyph glyph-name="nibianqi1" unicode="&#58909;" d="M349.421568-45.07648c-5.87776-57.163776-11.874304-65.76128-45.256704-66.387968-63.46752-1.200128-63.81568-0.897024-73.859072 67.719168-13.627392 0-27.742208-0.233472-41.848832 0.04096-54.132736 1.04448-89.710592 36.27008-89.76384 90.394624-0.249856 245.620736-0.229376 491.245568-0.016384 736.862208 0.045056 54.951936 36.31104 91.475968 90.988544 91.541504 216.285184 0.249856 432.566272 0.249856 648.851456-0.004096 54.706176-0.065536 90.861568-36.5568 90.906624-91.60704 0.208896-245.620736 0.229376-491.245568-0.02048-736.862208-0.057344-54.08768-35.663872-89.305088-89.833472-90.320896-15.577088-0.290816-31.158272-0.045056-42.459136-0.045056-7.401472-21.610496-8.609792-46.452736-21.48352-56.87296-13.4144-10.858496-38.023168-9.760768-57.851904-10.395648-31.100928-0.999424-35.364864 6.402048-44.81024 65.937408h-323.54304z m530.944 460.378112c0 121.511936 0.086016 243.023872-0.057344 364.539904-0.036864 32.698368-13.447168 46.145536-46.047232 46.16192-213.671936 0.098304-427.343872 0.1024-641.011712-0.008192-31.371264-0.016384-45.420544-13.74208-45.441024-44.740608-0.135168-243.707904-0.126976-487.415808-0.004096-731.123712 0.012288-31.432704 13.381632-44.511232 45.13792-44.670976 47.755264-0.241664 95.510528-0.073728 143.269888-0.073728 165.1712 0 330.3424-0.036864 495.521792 0.032768 36.765696 0.016384 48.59904 12.115968 48.615424 49.442816 0.049152 120.147968 0.02048 240.29184 0.016384 360.439808zM266.940416-44.838912v-31.96928h46.669824v31.96928H266.940416z m441.819136-32.710656h47.382528v31.936512h-47.382528v-31.936512zM515.096576 56.17664c-87.30624 0-174.61248-0.045056-261.91872 0.016384-36.225024 0.028672-50.548736 14.299136-50.610176 50.921472-0.14336 83.21024-0.14336 166.428672 0.004096 249.638912 0.065536 36.31104 14.82752 51.249152 50.72896 51.269632 175.292416 0.094208 350.584832 0.094208 525.881344-0.004096 35.647488-0.02048 50.716672-15.187968 50.802688-51.36384 0.2048-83.21024 0.249856-166.428672-0.024576-249.638912-0.118784-36.737024-14.548992-50.7904-50.909184-50.819072-87.977984-0.065536-175.968256-0.02048-263.954432-0.02048z m-270.123008 42.430464h542.69952v267.538432H244.973568v-267.538432zM618.078208 686.821376c-4.579328-6.26688-7.61856-11.522048-11.681792-15.814656-49.180672-51.95776-98.52928-103.755776-147.791872-155.635712-7.4752-7.872512-16.73216-15.929344-25.31328-5.124096-3.42016 4.308992-0.413696 18.59584 4.48512 23.887872 49.041408 53.014528 98.889728 105.28768 149.151744 157.147136 4.763648 4.911104 13.750272 6.967296 21.016576 7.593984 2.793472 0.24576 6.254592-7.20896 10.133504-12.054528zM533.880832 524.017664c6.729728 42.856448 32.72704 55.504896 69.115904 35.971072 14.880768-7.9872 30.777344-23.453696 42.242048 5.38624 1.478656 3.723264 14.139392 2.998272 22.05696 4.411392-0.004096-37.203968-23.646208-54.534144-54.796288-42.565632-9.465856 3.637248-17.944576 10.723328-27.594752 12.709888-7.061504 1.449984-20.713472-0.987136-22.081536-4.931584-5.681152-16.388096-16.334848-12.86144-28.942336-10.981376zM446.291968 642.134016c-12.259328 0.012288-24.694784-1.171456-36.691968 0.598016-4.763648 0.704512-8.556544 7.954432-12.795904 12.22656 4.009984 3.817472 7.897088 10.768384 12.054528 10.93632a918.294528 918.294528 0 0 0 75.546624-0.053248c4.059136-0.172032 7.82336-7.307264 11.722752-11.218944-4.354048-4.169728-8.282112-11.22304-13.135872-11.927552-12.009472-1.744896-24.440832-0.569344-36.70016-0.561152zM687.792128 298.401792c-0.147456 21.962752 14.798848 37.74464 36.200448 38.219776 22.175744 0.49152 38.313984-15.822848 38.043648-38.48192-0.258048-21.42208-16.130048-37.261312-37.285888-37.19168-21.192704 0.069632-36.814848 15.900672-36.958208 37.453824z m37.351424-18.546688c5.812224 9.1136 11.927552 14.462976 11.358208 18.972672-0.598016 4.714496-7.614464 8.62208-11.829248 12.886016-4.046848-4.407296-10.870784-8.54016-11.341824-13.299712-0.438272-4.501504 5.787648-9.658368 11.812864-18.558976z"  horiz-adv-x="1024" />

    
    <glyph glyph-name="guangfufadianchang" unicode="&#58896;" d="M953.6 332.8l-76.8 326.4c-12.8 44.8-57.6 76.8-102.4 76.8H256c-76.8 0-108.8-76.8-108.8-76.8s-57.6-236.8-76.8-326.4c-12.8-44.8-6.4-76.8 12.8-102.4 25.6-38.4 76.8-44.8 76.8-44.8h697.6c38.4 6.4 64 19.2 76.8 44.8 32 32 25.6 76.8 19.2 102.4zM166.4 236.8c-6.4 0-32 6.4-44.8 25.6-12.8 12.8-12.8 32-6.4 57.6 19.2 83.2 70.4 300.8 76.8 326.4 6.4 6.4 19.2 44.8 64 44.8h524.8c25.6 0 51.2-19.2 57.6-44.8L908.8 320c0-12.8 6.4-38.4-6.4-64-6.4-6.4-12.8-19.2-44.8-25.6l-691.2 6.4z m384-140.8l147.2-32v-32H332.8V64l140.8 32v64h70.4l6.4-64zM224 646.4l38.4 25.6h204.8l32-25.6v-115.2l-32-25.6H224l-25.6 32 25.6 108.8z m-44.8-204.8l44.8 38.4h236.8l32-38.4v-140.8l-32-32H179.2l-32 38.4 32 134.4z m627.2 204.8l19.2-108.8-25.6-32H556.8l-32 25.6V646.4l32 25.6H768l38.4-25.6z m38.4-204.8l32-134.4-32-38.4H563.2l-38.4 32V441.6l32 38.4h236.8l51.2-38.4z"  horiz-adv-x="1024" />

    
    <glyph glyph-name="shengyazhan" unicode="&#58953;" d="M883.195 2.903V509.43h3.49c35.346 0 64-28.654 64-64v-378.526c0-35.346-28.654-64-64-64h-3.49zM274.598 625.575v34.907c0 8.998 7.294 16.292 16.292 16.292h34.907c8.998 0 16.292-7.294 16.292-16.292v-34.907c0-8.998-7.294-16.292-16.292-16.292H290.89c-8.998 0-16.292 7.294-16.292 16.292z m135.991 0v34.907c0 8.998 7.294 16.292 16.292 16.292h34.907c8.998 0 16.292-7.294 16.292-16.292v-34.907c0-8.998-7.294-16.292-16.292-16.292h-34.907c-8.998 0-16.292 7.294-16.292 16.292z m403.038-48.655H210.724c-19.896 0-36.174-18.026-36.174-40.058v-560.805c0-22.032 16.278-40.057 36.174-40.057h602.903c19.896 0 36.174 18.026 36.174 40.057V536.862c0.001 22.032-16.278 40.058-36.174 40.058zM343.099 37.235c0-18.637-15.108-33.745-33.745-33.745-18.637 0-33.745 15.108-33.745 33.745V473.604c0 18.637 15.108 33.745 33.745 33.745 18.637 0 33.745-15.108 33.745-33.745v-436.369z m134.777 0c0-18.637-15.108-33.745-33.745-33.745-18.637 0-33.745 15.108-33.745 33.745V473.604c0 18.637 15.108 33.745 33.745 33.745 18.637 0 33.745-15.108 33.745-33.745v-436.369z m135.359 0.207c0-18.637-15.108-33.745-33.745-33.745-18.637 0-33.745 15.108-33.745 33.745V473.811c0 18.637 15.108 33.745 33.745 33.745 18.637 0 33.745-15.108 33.745-33.745v-436.369z m134.804-0.207c0-18.637-15.108-33.745-33.745-33.745-18.637 0-33.745 15.108-33.745 33.745V473.604c0 18.637 15.108 33.745 33.745 33.745 18.637 0 33.745-15.108 33.745-33.745v-436.369zM73.315 66.903V445.43c0 35.346 28.654 64 64 64h3.49v-506.526h-3.49c-35.346-0.001-64 28.653-64 63.999zM672.097 831.867c-61.502 0-111.358-49.857-111.358-111.358 0-61.502 49.857-111.359 111.358-111.359s111.359 49.857 111.359 111.359c0 61.501-49.857 111.358-111.359 111.358z m0.001-143.359c-17.673 0-32 14.327-32 32 0 17.673 14.327 32 32 32s32-14.327 32-32c0-17.673-14.327-32-32-32z"  horiz-adv-x="1024" />

    
    <glyph glyph-name="lidianchi" unicode="&#59032;" d="M84.425532 853.787234a40.851064 40.851064 0 0 1-40.851064-40.851064v-857.87234a40.851064 40.851064 0 0 1 40.851064-40.851064h1062.127659a40.851064 40.851064 0 0 1 40.851064 40.851064V812.93617a40.851064 40.851064 0 0 1-40.851064 40.851064h-1062.127659z m0 40.851064h1062.127659c45.121362 0 81.702128-36.580766 81.702128-81.702128v-857.87234c0-45.121362-36.580766-81.702128-81.702128-81.702128h-1062.127659c-45.121362 0-81.702128 36.580766-81.702128 81.702128V812.93617c0 45.121362 36.580766 81.702128 81.702128 81.702128zM431.659574 669.957447h367.659575V710.808511h122.553191v-40.851064H942.297872c33.841021 0 61.276596-27.435574 61.276596-61.276596v-490.212766c0-33.841021-27.435574-61.276596-61.276596-61.276596H288.680851c-33.841021 0-61.276596 27.435574-61.276596 61.276596v490.212766c0 33.841021 27.435574 61.276596 61.276596 61.276596h20.425532V710.808511h122.553191v-40.851064z m0-40.851064H288.680851a20.425532 20.425532 0 0 1-20.425532-20.425532v-490.212766A20.425532 20.425532 0 0 1 288.680851 98.042553h653.617021a20.425532 20.425532 0 0 1 20.425532 20.425532v490.212766A20.425532 20.425532 0 0 1 942.297872 629.106383H431.659574z m-122.553191-20.425532h40.851064v-490.212766h-40.851064v490.212766z m81.702128 0h40.851063v-490.212766h-40.851063v490.212766z m81.702127 0h40.851064v-490.212766h-40.851064v490.212766z m81.702128 0h40.851064v-490.212766h-40.851064v490.212766z m81.702128 0h40.851063v-490.212766h-40.851063v490.212766z m81.702127 0h40.851064v-490.212766h-40.851064v490.212766z m81.702128 0h40.851064v-490.212766h-40.851064v490.212766z m81.702128 0h40.851063v-490.212766h-40.851063v490.212766z"  horiz-adv-x="1230" />

    
    <glyph glyph-name="guzhang" unicode="&#58908;" d="M526.156092 858.062697L10.444278-19.717414C-19.045448-66.563072 17.816709-128 73.058747-128h1031.423629c55.293235 0 92.104195 61.436928 62.614469 108.333783L651.385031 858.062697c-25.752312 50.583071-99.476626 50.583071-125.228939 0zM588.770561-76.80256c-42.903455 0-76.79616 34.60947-76.79616 76.79616 0 42.903455 34.60947 76.79616 76.79616 76.796161 42.903455 0 76.79616-34.60947 76.796161-76.796161s-33.892705-76.79616-76.796161-76.79616zM665.566722 579.292635l-13.976901-412.753762c-0.665567-21.502925-26.622669-38.551672-57.187541-38.551672h-10.59787c-30.564872 0-56.521974 16.99755-57.187541 38.551672l-14.59127 412.753762C510.694465 612.161392 541.924904 639.961602 581.80771 639.961602h13.925703c39.934003 0 71.164442-27.80021 69.782111-60.668967z"  horiz-adv-x="1177" />

    
    <glyph glyph-name="zhuangjirongliang" unicode="&#59104;" d="M1024 652.8V729.6c0 12.8-9.6 22.4-22.4 22.4H864V825.6c0 12.8-9.6 22.4-22.4 22.4s-22.4-9.6-22.4-22.4v-70.4h-172.8V825.6c0 12.8-9.6 22.4-22.4 22.4-12.8 0-22.4-9.6-22.4-22.4v-70.4h-172.8V825.6c0 12.8-9.6 22.4-22.4 22.4-12.8 0-22.4-9.6-22.4-22.4v-70.4H208V825.6c0 12.8-9.6 22.4-22.4 22.4-12.8 0-22.4-9.6-22.4-22.4v-70.4H25.6c-12.8 0-22.4-9.6-22.4-22.4V0c0-12.8 9.6-22.4 22.4-22.4h128v-38.4c0-12.8 9.6-22.4 22.4-22.4h156.8c12.8 0 22.4 9.6 22.4 22.4v38.4h307.2v-38.4c0-12.8 9.6-22.4 22.4-22.4h156.8c12.8 0 22.4 9.6 22.4 22.4v38.4h128c12.8 0 22.4 9.6 22.4 22.4V566.4h-44.8v-540.8h-153.6v-64H704v64H313.6v-64H201.6v64H48V707.2h931.2v-54.4H1024zM470.4 156.8h-9.6c-12.8 3.2-19.2 16-19.2 28.8v128h-64c-9.6 0-19.2 6.4-25.6 16-6.4 9.6-3.2 22.4 3.2 28.8l166.4 217.6c6.4 9.6 22.4 12.8 32 9.6 12.8-3.2 19.2-16 19.2-28.8l-12.8-121.6h76.8c9.6 0 19.2-6.4 25.6-16s3.2-22.4-3.2-28.8l-163.2-224c-9.6-6.4-16-9.6-25.6-9.6z m-60.8 201.6h48c16 0 28.8-12.8 28.8-28.8v-92.8l115.2 153.6h-60.8c-9.6 0-16 3.2-22.4 9.6-6.4 6.4-6.4 12.8-6.4 22.4l9.6 80-112-144z"  horiz-adv-x="1024" />

    
    <glyph glyph-name="dianliu1" unicode="&#58964;" d="M218.91213-127.813441l192.943157 435.083919L165.82996 381.247223 676.436988 891.854251l-201.719709-427.430866 253.616195-82.819628L218.91213-127.813441z m398.655222 132.344745h103.428146l-17.014154 53.281166c-12.536745 37.162494-22.834785 72.534024-34.028308 111.039741h-1.790963c-10.745781-38.953457-21.491563-73.877247-33.580567-111.039741l-17.014154-53.281166z m145.51579-132.531304l-32.685085 103.428146h-122.233263l-33.580567-103.428146h-37.162494l111.935222 327.746332h40.744422L802.48434-128h-39.401198z"  horiz-adv-x="1024" />

    
    <glyph glyph-name="xitongzhuangtai" unicode="&#59211;" d="M684.8 796.8c-12.8 3.2-22.4 9.6-35.2 12.8l-19.2-60.8 28.8-9.6C803.2 678.4 896 537.6 896 384c0-211.2-172.8-384-384-384S128 172.8 128 384c0 166.4 105.6 313.6 265.6 364.8l-19.2 60.8C188.8 748.8 64 579.2 64 384c0-246.4 201.6-448 448-448s448 201.6 448 448c0 182.4-108.8 342.4-275.2 412.8zM384 320c0-70.4 57.6-128 128-128s128 57.6 128 128c0 22.4-6.4 41.6-16 57.6L512 832l-112-454.4c-9.6-16-16-35.2-16-57.6z m128-96c-54.4 0-96 41.6-96 96 0 38.4 22.4 70.4 54.4 86.4 3.2 3.2 9.6 3.2 12.8 6.4 9.6 3.2 19.2 6.4 28.8 6.4 54.4 0 96-41.6 96-96S566.4 224 512 224zM512 320m-64 0a64 64 0 1 1 128 0 64 64 0 1 1-128 0ZM618.112 617.664l30.048 56.512 28.256-15.008-30.048-56.512zM713.312 542.176L765.76 578.88l18.336-26.24-52.416-36.672zM763.008 431.136l63.52 7.808 3.904-31.776-63.52-7.808zM192.608 407.04l3.904 31.776 63.52-7.808-3.904-31.744zM239.968 552.16l18.368 26.208 52.416-36.736-18.368-26.208zM349.28 657.28l28.256 15.04 30.048-56.512-28.256-15.04z"  horiz-adv-x="1024" />

    
    <glyph glyph-name="server" unicode="&#58885;" d="M78.803478 804.218435L247.830261 851.478261h553.160348l138.306782-47.259826H78.803478z m866.393044-675.350261v39.69113H78.803478V-83.478261h866.393044v212.346435zM409.6 11.041391H204.822261v78.758957H409.6v-78.758957z m261.565217 15.738435c-6.967652-7.346087-16.695652-11.01913-26.290087-11.01913-4.118261 0-8.192 0.667826-12.04313 2.025739-12.755478 6.010435-22.706087 19.500522-22.706087 34.459826 1.424696 20.992 17.051826 37.487304 35.461565 37.487304 14.224696 0 26.980174-8.97113 32.656696-22.483478 5.676522-13.490087 2.849391-29.96313-7.078957-40.470261z m90.802087-11.998609a23.195826 23.195826 0 0 0-2.181565-0.089043c-17.563826 0-33.346783 17.341217-34.704696 36.062609 0 20.969739 15.60487 38.956522 34.014609 38.956521 19.901217 0 35.483826-16.473043 36.886261-35.951304 0.022261-20.969739-15.560348-37.487304-34.014609-38.978783z m183.229218 415.120696v37.932522H78.803478V215.81913h866.393044v214.082783zM409.6 310.316522H204.822261v78.758956H409.6v-78.758956z m261.565217 17.519304c-6.967652-7.346087-16.695652-11.01913-26.290087-11.01913-4.118261 0-8.192 0.667826-12.04313 2.048-12.755478 5.988174-22.706087 19.456-22.706087 34.459826 1.424696 20.969739 17.051826 37.465043 35.461565 37.465043 14.224696 0 26.980174-8.993391 32.656696-22.483478 5.676522-13.512348 2.849391-30.007652-7.078957-40.470261z m90.802087-11.998609a23.062261 23.062261 0 0 0-2.181565-0.111304c-17.563826 0-33.346783 17.341217-34.704696 36.062609 0 20.969739 15.60487 38.956522 34.014609 38.956521 19.901217 0 35.483826-16.473043 36.886261-35.951304 0.022261-20.969739-15.560348-37.465043-34.014609-38.956522zM945.196522 746.718609V782.892522H78.803478V515.116522h866.393044V746.718609zM409.6 609.613913H204.822261V688.39513H409.6v-78.781217zM671.165217 628.869565c-6.967652-7.346087-16.695652-11.01913-26.290087-11.01913-4.118261 0-8.192 0.667826-12.04313 2.025739-12.755478 5.988174-22.706087 19.478261-22.706087 34.459826 1.424696 20.969739 17.051826 37.465043 35.461565 37.465043 14.224696 0 26.980174-8.993391 32.656696-22.483478 5.676522-13.490087 2.849391-29.96313-7.078957-40.448z m90.802087-11.998608a34.326261 34.326261 0 0 0-2.181565-0.089044c-17.563826 0-33.346783 17.341217-34.704696 36.040348 0 20.969739 15.60487 38.956522 34.014609 38.956522 19.901217 0 35.483826-16.473043 36.886261-35.973566 0.022261-20.947478-15.560348-37.420522-34.014609-38.93426z"  horiz-adv-x="1024" />

    
    <glyph glyph-name="yunhangmoshi" unicode="&#58939;" d="M886.4768 114.4832H137.5232C61.6448 114.4832 0 176.2304 0 252.1088V699.0848C0 774.8608 61.6448 836.608 137.5232 836.608h748.9536c75.8784 0 137.5232-61.6448 137.5232-137.5232v-446.976c0-75.8784-61.7472-137.6256-137.5232-137.6256zM137.5232 770.9696c-39.6288 0-71.8848-32.256-71.8848-71.8848v-446.976c0-39.6288 32.256-71.8848 71.8848-71.8848h748.9536c39.6288 0 71.8848 32.256 71.8848 71.8848V699.0848c0 39.6288-32.256 71.8848-71.8848 71.8848H137.5232zM725.2992-82.432H298.7008c-18.1248 0-32.8704 14.6432-32.8704 32.8704 0 18.1248 14.6432 32.8704 32.8704 32.8704h426.7008c18.1248 0 32.8704-14.6432 32.8704-32.8704a33.06496 33.06496 0 0 0-32.9728-32.8704zM712.192 551.0144m-88.576 0a88.576 88.576 0 1 1 177.152 0 88.576 88.576 0 1 1-177.152 0Z"  horiz-adv-x="1024" />

    
    <glyph glyph-name="kefangdianliang" unicode="&#58944;" d="M475.111067 790.033729V869.533979a26.466021 26.466021 0 0 0 52.932042 0v-79.50025a26.466021 26.466021 0 0 0-26.466021-26.466021c-14.510328 0-26.466021 11.853508-26.466021 26.466021zM724.136912 736.488574l56.201976 56.201976a26.578425 26.578425 0 0 0 37.502046 0 26.578425 26.578425 0 0 0 0-37.502046l-56.201976-56.201976a26.578425 26.578425 0 0 0-37.502046 0 26.578425 26.578425 0 0 0 0 37.502046zM279.221635 736.488574l-56.201976 56.201976a26.578425 26.578425 0 0 1-37.502046 0 26.578425 26.578425 0 0 1 0-37.502046l56.201976-56.201976a26.578425 26.578425 0 0 1 37.502046 0 26.578425 26.578425 0 0 1 0 37.502046zM669.672089-128H333.584273c-67.646742 0-122.724678 55.077936-122.724678 122.724678V564.714899c0 67.646742 55.077936 122.724678 122.724678 122.724678h336.087816c67.646742 0 122.724678-55.077936 122.724678-122.724678V-5.275322c0-67.646742-54.975751-122.724678-122.724678-122.724678zM333.584273 627.354555c-34.538669 0-62.537471-28.100988-62.537471-62.537471V-5.275322c0-34.538669 28.100988-62.537471 62.537471-62.537471h336.087816c34.538669 0 62.537471 28.100988 62.537471 62.537471V564.714899c0 34.538669-28.100988 62.537471-62.537471 62.537471H333.584273zM563.910189 729.335595H439.346173a34.232113 34.232113 0 0 1-34.232113-34.232112v-22.27642h193.028241v22.27642c0 18.904301-15.327812 34.232113-34.232112 34.232112zM668.241493-31.741343h-333.124439a42.100389 42.100389 0 0 0-42.100389 42.100389V257.034627a42.100389 42.100389 0 0 0 42.100389 42.100389h333.124439a42.100389 42.100389 0 0 0 42.100389-42.100389v-246.573396c0-23.298274-18.802116-42.202575-42.100389-42.202574z"  horiz-adv-x="1024" />

    
    <glyph glyph-name="dantiwendu" unicode="&#58900;" d="M731.251854 793.625594h-78.742981V844.812797a51.187203 51.187203 0 0 1-51.187203 51.187203H425.749563a51.187203 51.187203 0 0 1-51.187204-51.187203v-51.187203H292.748146A136.499209 136.499209 0 0 1 156.248938 657.126385v-648.37124a136.499209 136.499209 0 0 1 136.499208-136.499209h438.503708a135.560776 135.560776 0 0 1 76.780805 23.631425 136.499209 136.499209 0 0 1 59.718403 112.867784V657.126385a136.925769 136.925769 0 0 1-136.499208 136.499209z m-219.251854-783.590769c-103.995334 0-188.45422 82.582021-188.45422 184.017995A181.629259 181.629259 0 0 0 388.468216 332.940765a27.299842 27.299842 0 0 1 9.213697 20.816129V543.917354a114.232775 114.232775 0 0 0 228.46555 0v-195.791052a17.062401 17.062401 0 0 1 6.824961-13.223361 181.629259 181.629259 0 0 0 67.481796-140.850121c0-101.521286-84.544197-184.017996-188.45422-184.017995zM580.846788 300.266267l-9.213696 5.630592a10.066817 10.066817 0 0 0-4.777473 8.531201v229.489294a54.940931 54.940931 0 0 1-109.79655 0v-229.489294a9.896193 9.896193 0 0 0-4.777473-8.531201l-9.128384-5.630592a124.384904 124.384904 0 0 1-60.315588-106.128135 129.162376 129.162376 0 0 1 258.23944 0 124.470216 124.470216 0 0 1-60.230276 106.128135zM512 126.912272a68.249604 68.249604 0 0 0-69.017412 67.22586 67.22586 67.22586 0 0 0 49.395651 64.069316V431.902691a18.598017 18.598017 0 0 0 18.512705 18.598017h1.535616A19.195201 19.195201 0 0 0 531.621761 431.390819v-173.183371a67.396484 67.396484 0 0 0 49.310339-64.069316 68.249604 68.249604 0 0 0-68.9321-67.22586z"  horiz-adv-x="1024" />

    
    <glyph glyph-name="dantidianliu" unicode="&#58902;" d="M731.251854 793.625594h-78.742981V844.812797a51.187203 51.187203 0 0 1-51.187203 51.187203H425.749563a51.187203 51.187203 0 0 1-51.187204-51.187203v-51.187203H292.748146A136.499209 136.499209 0 0 1 156.248938 657.126385v-648.37124a136.499209 136.499209 0 0 1 136.499208-136.499209h438.503708a135.560776 135.560776 0 0 1 76.780805 23.631425 136.499209 136.499209 0 0 1 59.718403 112.867784V657.126385a136.925769 136.925769 0 0 1-136.499208 136.499209z m-406.938266-66.287429h375.372824a117.218695 117.218695 0 0 0 116.877447-116.877447v-131.977672c-48.883779-11.858369-64.23994-55.026243-150.746313-55.026244-100.070982 0-143.921353 73.538949-270.694993 73.538949-110.479047 0-138.461385-28.238274-187.686412-35.575106V610.460718a117.133383 117.133383 0 0 0 116.877447 116.877447z"  horiz-adv-x="1024" />

    
    <glyph glyph-name="dantidianya" unicode="&#58903;" d="M731.251854 793.625594h-78.742981V844.812797a51.187203 51.187203 0 0 1-51.187203 51.187203H425.749563a51.187203 51.187203 0 0 1-51.187204-51.187203v-51.187203H292.748146A136.499209 136.499209 0 0 1 156.248938 657.126385v-648.37124a136.499209 136.499209 0 0 1 136.499208-136.499209h438.503708a135.560776 135.560776 0 0 1 76.780805 23.631425 136.499209 136.499209 0 0 1 59.718403 112.867784V657.126385a136.925769 136.925769 0 0 1-136.499208 136.499209z m50.675331-177.448971L590.657669 425.163043H719.308173A23.119553 23.119553 0 0 0 733.896526 384.127968l-460.684829-368.718487a23.034241 23.034241 0 0 0-33.527618 30.712322l160.38657 240.750479H258.623344a23.034241 23.034241 0 0 0-19.963009 34.124802l184.273931 322.991252a23.119553 23.119553 0 0 0 19.96301 11.602433h322.650004a23.119553 23.119553 0 0 0 16.379905-39.414146z"  horiz-adv-x="1024" />

    
    <glyph glyph-name="xitongkongzhi1" unicode="&#58901;" d="M384 668h496v-40H384zM140 668h104v-40H140zM532 140h348v-40h-348zM140 140h252v-40H140zM808 404h72v-40h-72zM140 404h528v-40H140zM140 648m-20 0a20 20 0 1 1 40 0 20 20 0 1 1-40 0ZM880 648m-20 0a20 20 0 1 1 40 0 20 20 0 1 1-40 0ZM880 384m-20 0a20 20 0 1 1 40 0 20 20 0 1 1-40 0ZM880 120m-20 0a20 20 0 1 1 40 0 20 20 0 1 1-40 0ZM140 384m-20 0a20 20 0 1 1 40 0 20 20 0 1 1-40 0ZM140 120m-20 0a20 20 0 1 1 40 0 20 20 0 1 1-40 0ZM314 560C264.4 560 224 600.4 224 650S264.4 740 314 740 404 699.6 404 650 363.6 560 314 560z m0 140C286.4 700 264 677.6 264 650S286.4 600 314 600 364 622.4 364 650 341.6 700 314 700zM738 292c-49.6 0-90 40.4-90 90s40.4 90 90 90 90-40.4 90-90-40.4-90-90-90z m0 140c-27.6 0-50-22.4-50-50s22.4-50 50-50 50 22.4 50 50-22.4 50-50 50zM462 32c-49.6 0-90 40.4-90 90s40.4 90 90 90 90-40.4 90-90-40.4-90-90-90z m0 140c-27.6 0-50-22.4-50-50s22.4-50 50-50 50 22.4 50 50-22.4 50-50 50z"  horiz-adv-x="1024" />

    
    <glyph glyph-name="wuliji" unicode="&#59132;" d="M107.84 663.36h376.512V738.56H107.84v-75.264zM30.144 832h963.712c16.64 0 30.144-13.504 30.144-30.08v-201.856c0-16.576-13.568-30.08-30.08-30.08H30.08a30.208 30.208 0 0 0-30.08 30.08V801.856C0 818.56 13.568 832 30.08 832z m77.696-505.984h376.512V401.28H107.84v-75.264zM30.144 494.656h963.712c16.64 0 30.144-13.568 30.144-30.08v-201.856c0-16.64-13.568-30.08-30.08-30.08H30.08a30.208 30.208 0 0 0-30.08 30.08V464.512c0 16.64 13.568 30.08 30.08 30.08z m77.696-506.048h376.512v75.264H107.84v-75.264zM30.144 157.312h963.712c16.64 0 30.144-13.568 30.144-30.08v-201.92c0-16.512-13.568-30.08-30.08-30.08H30.08a30.208 30.208 0 0 0-30.08 30.08v201.856c0 16.64 13.568 30.08 30.08 30.08z"  horiz-adv-x="1024" />

    
    <glyph glyph-name="zonggongshuai" unicode="&#58899;" d="M290.909091 290.443636V546.909091a23.272727 23.272727 0 1 0 46.545454 0v-216.576L426.263273 379.345455l132.654545-60.462546 145.780364 151.086546a23.272727 23.272727 0 1 0 33.512727-32.302546l-168.634182-174.778182L428.218182 327.307636 337.454545 277.178182V197.818182h384a23.272727 23.272727 0 1 0 0-46.545455H290.909091v139.170909zM744.727273 0H241.850182A102.213818 102.213818 0 0 0 139.636364 102.213818V654.149818C139.636364 710.609455 185.390545 756.363636 241.850182 756.363636h540.299636A102.213818 102.213818 0 0 0 884.363636 654.149818v-551.936a102.213818 102.213818 0 0 0-102.213818-102.213818H744.727273zM241.850182 686.545455a32.395636 32.395636 0 0 1-32.395637-32.395637v-551.936c0-17.873455 14.522182-32.395636 32.395637-32.395636h540.299636a32.395636 32.395636 0 0 1 32.395637 32.395636V654.149818a32.395636 32.395636 0 0 1-32.395637 32.395637H241.850182z"  horiz-adv-x="1024" />

    
    </font>
</defs>
</svg>
